<svg width="154" height="30" viewBox="0 0 154 30" fill="none" xmlns="http://www.w3.org/2000/svg">
<mask id="mask0_301_146" style="mask-type:alpha" maskUnits="userSpaceOnUse" x="0" y="0" width="154" height="30">
<rect width="154" height="30" fill="#C4C4C4"/>
</mask>
<g mask="url(#mask0_301_146)">
<path d="M11.1125 27.532C8.45246 27.532 6.21046 26.962 4.38646 25.822C2.56246 24.6567 1.25779 23.0353 0.472461 20.958L5.71646 17.918C6.78046 20.3753 8.64246 21.604 11.3025 21.604C13.7091 21.604 14.9125 20.882 14.9125 19.438C14.9125 18.6273 14.5198 18.0193 13.7345 17.614C12.9238 17.1327 11.4798 16.6133 9.40246 16.056C7.27446 15.4733 5.47579 14.6373 4.00646 13.548C2.38513 12.2307 1.57446 10.3687 1.57446 7.962C1.57446 5.50466 2.44846 3.54133 4.19646 2.072C5.96979 0.602665 8.07246 -0.132002 10.5045 -0.132002C12.6831 -0.132002 14.6085 0.387332 16.2805 1.426C17.9525 2.43933 19.2698 3.92133 20.2325 5.872L15.1025 8.874C14.1398 6.822 12.6071 5.796 10.5045 5.796C9.61779 5.796 8.92113 5.986 8.41446 6.366C7.90779 6.746 7.65446 7.22733 7.65446 7.81C7.65446 8.44333 7.95846 9.01333 8.56646 9.52C9.22513 10.0267 10.5171 10.5587 12.4425 11.116L14.9125 11.914C15.5458 12.1167 16.2805 12.4587 17.1165 12.94C18.0285 13.396 18.7125 13.89 19.1685 14.422C20.3845 15.7393 20.9925 17.386 20.9925 19.362C20.9925 21.87 20.0805 23.8713 18.2565 25.366C16.4325 26.81 14.0511 27.532 11.1125 27.532ZM34.4254 16.436V21.148H45.0654V27H28.3454V0.399998H44.8754V6.252H34.4254V10.66H43.9254V16.436H34.4254ZM75.3063 23.542C72.6209 26.202 69.3529 27.532 65.5023 27.532C61.6516 27.532 58.3836 26.202 55.6983 23.542C53.0129 20.882 51.6703 17.6013 51.6703 13.7C51.6703 9.79867 53.0129 6.518 55.6983 3.858C58.3836 1.198 61.6516 -0.132002 65.5023 -0.132002C69.3529 -0.132002 72.6209 1.198 75.3063 3.858C77.9916 6.518 79.3343 9.79867 79.3343 13.7C79.3343 17.6013 77.9916 20.882 75.3063 23.542ZM57.7503 13.7C57.7503 16.0307 58.4849 17.9307 59.9543 19.4C61.4236 20.8693 63.2729 21.604 65.5023 21.604C67.7063 21.604 69.5429 20.8693 71.0123 19.4C72.5069 17.9053 73.2543 16.0053 73.2543 13.7C73.2543 11.3947 72.5069 9.49467 71.0123 8C69.5429 6.53067 67.7063 5.796 65.5023 5.796C63.2729 5.796 61.4236 6.53067 59.9543 8C58.4849 9.46933 57.7503 11.3693 57.7503 13.7Z" fill="#14161B"/>
<path d="M100.86 9.896C100.02 10.736 98.992 11.156 97.776 11.156C96.56 11.156 95.528 10.736 94.68 9.896C93.84 9.048 93.42 8.016 93.42 6.8C93.42 5.584 93.84 4.556 94.68 3.716C95.528 2.868 96.56 2.444 97.776 2.444C98.992 2.444 100.02 2.868 100.86 3.716C101.708 4.556 102.132 5.584 102.132 6.8C102.132 8.016 101.708 9.048 100.86 9.896ZM95.652 8.96C96.236 9.528 96.944 9.812 97.776 9.812C98.616 9.812 99.32 9.528 99.888 8.96C100.464 8.384 100.752 7.664 100.752 6.8C100.752 5.936 100.464 5.22 99.888 4.652C99.32 4.076 98.616 3.788 97.776 3.788C96.936 3.788 96.228 4.076 95.652 4.652C95.084 5.22 94.8 5.936 94.8 6.8C94.8 7.656 95.084 8.376 95.652 8.96ZM107.391 2.6H110.487C111.279 2.6 111.939 2.864 112.467 3.392C113.003 3.92 113.271 4.576 113.271 5.36C113.271 6.136 113.003 6.792 112.467 7.328C111.939 7.856 111.279 8.12 110.487 8.12H108.771V11H107.391V2.6ZM108.771 6.824H110.487C110.895 6.824 111.231 6.688 111.495 6.416C111.759 6.136 111.891 5.784 111.891 5.36C111.891 4.936 111.759 4.588 111.495 4.316C111.231 4.036 110.895 3.896 110.487 3.896H108.771V6.824ZM117.633 2.6H123.753V3.92H121.389V11H120.009V3.92H117.633V2.6ZM128.774 11V2.6H130.154V11H128.774ZM142.396 2.6H143.872V11H142.492V5.012L139.936 9.236H139.768L137.212 5V11H135.832V2.6H137.32L139.852 6.8L142.396 2.6ZM149.547 11V2.6H150.927V11H149.547ZM98.94 18.74L95.172 24.68H99.036V26H93.456V24.86L97.224 18.92H93.54V17.6H98.94V18.74ZM111.198 26H109.71L109.122 24.308H105.546L104.958 26H103.458L106.506 17.6H108.162L111.198 26ZM107.334 19.22L106.002 23.012H108.666L107.334 19.22ZM114.844 17.6H120.964V18.92H118.6V26H117.22V18.92H114.844V17.6ZM125.985 26V17.6H127.365V26H125.985ZM140.063 24.896C139.223 25.736 138.195 26.156 136.979 26.156C135.763 26.156 134.731 25.736 133.883 24.896C133.043 24.048 132.623 23.016 132.623 21.8C132.623 20.584 133.043 19.556 133.883 18.716C134.731 17.868 135.763 17.444 136.979 17.444C138.195 17.444 139.223 17.868 140.063 18.716C140.911 19.556 141.335 20.584 141.335 21.8C141.335 23.016 140.911 24.048 140.063 24.896ZM134.855 23.96C135.439 24.528 136.147 24.812 136.979 24.812C137.819 24.812 138.523 24.528 139.091 23.96C139.667 23.384 139.955 22.664 139.955 21.8C139.955 20.936 139.667 20.22 139.091 19.652C138.523 19.076 137.819 18.788 136.979 18.788C136.139 18.788 135.431 19.076 134.855 19.652C134.287 20.22 134.003 20.936 134.003 21.8C134.003 22.656 134.287 23.376 134.855 23.96ZM151.634 23.3V17.6H153.014V26H151.934L147.974 20.3V26H146.594V17.6H147.674L151.634 23.3Z" fill="#14161B"/>
</g>
</svg>
