<svg width="166" height="35" viewBox="0 0 166 35" fill="none" xmlns="http://www.w3.org/2000/svg">
<mask id="mask0_301_154" style="mask-type:alpha" maskUnits="userSpaceOnUse" x="0" y="0" width="166" height="35">
<rect width="166" height="35" fill="#C4C4C4"/>
</mask>
<g mask="url(#mask0_301_154)">
<path fill-rule="evenodd" clip-rule="evenodd" d="M50.3579 16.6948C51.4526 19.7054 52 22.7159 52 26.0001C52 29.2843 51.4526 32.2948 50.3579 35.3053L41.3263 31.4738C42.1474 29.8317 42.4211 27.9159 42.4211 26.0001C42.4211 24.0843 42.1474 22.1685 41.3263 20.5264L50.3579 16.6948Z" fill="#14161B"/>
<path fill-rule="evenodd" clip-rule="evenodd" d="M36.6737 2.18945C42.4211 4.92629 47.0737 9.57893 49.8105 15.3263L40.779 19.1579V18.6105L46.2527 12.0421L38.8632 15.8737C37.2211 13.9579 35.3053 12.3158 32.8421 11.221L36.6737 2.18945Z" fill="#14161B"/>
<path fill-rule="evenodd" clip-rule="evenodd" d="M10.6738 20.5264C9.85278 22.1685 9.57909 24.0843 9.57909 26.0001C9.57909 27.9159 9.85278 29.8317 10.6738 31.4738L1.64225 35.3053C0.547514 32.2948 0.000145346 29.2843 0.000145346 26.0001C0.000145346 22.7159 0.547514 19.7054 1.64225 16.6948L10.6738 20.5264Z" fill="#14161B"/>
<path fill-rule="evenodd" clip-rule="evenodd" d="M19.158 11.221C15.6001 12.8631 12.8632 15.6 11.2211 19.1579L2.18954 15.3263C4.92638 9.57893 9.57901 4.92629 15.3264 2.18945L19.158 11.221Z" fill="#14161B"/>
<path fill-rule="evenodd" clip-rule="evenodd" d="M25.9999 0C29.2841 0 32.2946 0.547368 35.3052 1.64211L31.4736 10.6737C29.8315 9.85263 27.9157 9.57895 25.9999 9.57895C24.0841 9.57895 22.1683 9.85263 20.5262 10.6737L16.6947 1.64211C19.7052 0.547368 22.7157 0 25.9999 0Z" fill="#14161B"/>
<path fill-rule="evenodd" clip-rule="evenodd" d="M42.6948 14.7791L36.4001 22.4422C34.2106 24.9054 32.0211 27.3685 30.1054 29.8317C25.7264 35.8527 17.7896 28.1896 25.179 24.0843L33.9369 19.4317L42.6948 14.7791ZM26.0001 26.0001C27.3685 26.0001 28.1896 27.0948 28.1896 28.1896C28.1896 29.558 27.3685 30.6527 26.0001 30.6527C24.6317 30.6527 23.8106 29.558 23.8106 28.1896C23.8106 27.0948 24.6317 26.0001 26.0001 26.0001Z" fill="#14161B"/>
<path d="M70.379 16.3182C70.145 16.3528 69.9457 16.3008 69.781 16.1622C69.6163 16.0235 69.5383 15.8415 69.547 15.6162C69.5383 14.8275 69.508 13.6228 69.456 12.0022C69.3953 10.4942 69.3433 9.17251 69.3 8.03718C69.3 7.79451 69.391 7.56918 69.573 7.36118C69.755 7.15318 69.9717 7.02318 70.223 6.97118C70.4743 6.91918 70.691 6.96251 70.873 7.10118C71.055 7.23984 71.146 7.43051 71.146 7.67318C71.198 8.64384 71.263 10.3035 71.341 12.6522C72.381 10.9015 73.4167 9.19851 74.448 7.54318C74.552 7.36984 74.6907 7.23551 74.864 7.14018C75.046 7.03618 75.228 6.98418 75.41 6.98418C75.618 6.98418 75.7957 7.04918 75.943 7.17918C76.0903 7.30051 76.164 7.71651 76.164 8.42718L76.528 11.0402L76.71 12.7432C76.8227 12.5265 77.1693 11.7942 77.75 10.5462C78.3307 9.29818 78.8203 8.31018 79.219 7.58218C79.3403 7.34818 79.5223 7.17051 79.765 7.04918C80.0163 6.92784 80.2503 6.90184 80.467 6.97118C80.6923 7.04051 80.844 7.18784 80.922 7.41318C81 7.62984 80.9783 7.85951 80.857 8.10218C80.4583 8.82151 80.025 9.68384 79.557 10.6892C79.0977 11.6945 78.7987 12.3315 78.66 12.6002L77.867 14.1472L77.126 15.6162C77.0307 15.7982 76.8963 15.9498 76.723 16.0712C76.5497 16.1925 76.372 16.2618 76.19 16.2792C75.9473 16.3398 75.735 16.3182 75.553 16.2142C75.371 16.1102 75.2627 15.9498 75.228 15.7332C75.0113 14.4852 74.825 13.1028 74.669 11.5862C74.643 11.3262 74.5997 10.9925 74.539 10.5852L71.484 15.7332C71.3627 15.9325 71.198 16.0885 70.99 16.2012C70.7907 16.3052 70.587 16.3442 70.379 16.3182ZM86.9708 16.3182C85.6881 16.3182 83.9418 16.3052 81.7318 16.2792C81.5584 16.2792 81.4111 16.2315 81.2898 16.1362C81.1684 16.0322 81.0861 15.9065 81.0428 15.7592C80.9734 15.6032 80.9604 15.4342 81.0038 15.2522C81.0731 14.9488 81.3288 13.7268 81.7708 11.5862C82.0914 10.0262 82.3904 8.79984 82.6678 7.90718C82.7024 7.79451 82.7501 7.69051 82.8108 7.59518C82.9148 7.42184 83.0491 7.28318 83.2138 7.17918C83.3871 7.06651 83.5734 7.00584 83.7728 6.99718C84.4054 6.98851 85.2591 6.98851 86.3338 6.99718C87.4084 6.99718 88.2621 6.99284 88.8948 6.98418C89.1461 6.98418 89.3411 7.07084 89.4798 7.24418C89.6184 7.41751 89.6618 7.62984 89.6098 7.88118C89.5578 8.12384 89.4278 8.33618 89.2198 8.51818C89.0204 8.69151 88.7951 8.77818 88.5438 8.77818C88.0584 8.77818 87.3348 8.77818 86.3728 8.77818C85.4108 8.76951 84.6871 8.76951 84.2018 8.77818C84.0631 9.30684 83.9114 9.93084 83.7468 10.6502C84.1628 10.6415 85.4454 10.6372 87.5948 10.6372C87.8461 10.6372 88.0411 10.7238 88.1798 10.8972C88.3271 11.0705 88.3748 11.2828 88.3228 11.5342C88.2708 11.7768 88.1364 11.9892 87.9198 12.1712C87.7031 12.3445 87.4691 12.4312 87.2178 12.4312C85.0598 12.4312 83.7814 12.4355 83.3828 12.4442C83.1921 13.4148 83.0491 14.0995 82.9538 14.4982C84.7131 14.5155 86.1821 14.5242 87.3608 14.5242C87.6121 14.5242 87.8028 14.6108 87.9328 14.7842C88.0714 14.9575 88.1148 15.1698 88.0628 15.4212C88.0108 15.6725 87.8764 15.8848 87.6598 16.0582C87.4518 16.2315 87.2221 16.3182 86.9708 16.3182ZM92.7662 16.3572C92.5929 16.3572 92.2896 16.3485 91.8562 16.3312L90.7902 16.2792C90.7642 16.2878 90.7296 16.2922 90.6862 16.2922C90.5389 16.2922 90.4046 16.2575 90.2832 16.1882C90.0492 16.0582 89.9322 15.8458 89.9322 15.5512C89.9322 15.4645 89.9366 15.3995 89.9452 15.3562C89.9539 15.3302 89.9756 15.2695 90.0102 15.1742L90.4912 13.0032C90.7252 11.9458 90.9072 11.0532 91.0372 10.3252C91.1759 9.58851 91.2929 8.86051 91.3882 8.14118C91.4229 7.89851 91.5269 7.68618 91.7002 7.50418C91.8822 7.31351 92.0902 7.19651 92.3242 7.15318C92.4542 7.07518 92.6102 7.02751 92.7922 7.01018L94.3782 6.95818C95.6002 6.95818 96.5102 7.16184 97.1082 7.56918C97.7062 7.96784 98.0052 8.53551 98.0052 9.27218C98.0052 9.72284 97.8839 10.1388 97.6412 10.5202C97.4072 10.8928 97.1342 11.1355 96.8222 11.2482C97.2382 11.4215 97.5329 11.6468 97.7062 11.9242C97.8882 12.2015 97.9792 12.5395 97.9792 12.9382C97.9792 13.4755 97.8622 13.9392 97.6282 14.3292C97.3682 14.7538 96.9566 15.1438 96.3932 15.4992C95.5439 16.0105 94.5082 16.2922 93.2862 16.3442C93.1736 16.3528 93.0002 16.3572 92.7662 16.3572ZM93.5852 14.5632C94.0966 14.5372 94.4996 14.4982 94.7942 14.4462C95.0889 14.3942 95.3532 14.2988 95.5872 14.1602C95.8126 14.0215 95.9599 13.8915 96.0292 13.7702C96.1072 13.6402 96.1419 13.4582 96.1332 13.2242C96.1159 12.8082 95.7692 12.5612 95.0932 12.4832C94.7812 12.4485 94.3609 12.4355 93.8322 12.4442L92.3762 12.4312L91.9472 14.5242C92.0252 14.5328 92.0946 14.5372 92.1552 14.5372C92.2159 14.5372 92.2722 14.5415 92.3242 14.5502C92.9656 14.5675 93.3859 14.5718 93.5852 14.5632ZM94.1962 10.7022C94.7596 10.7022 95.2406 10.5982 95.6392 10.3902C95.9859 10.1995 96.1592 9.96551 96.1592 9.68818C96.1592 9.43684 95.9946 9.23318 95.6652 9.07718C95.3446 8.91251 94.8852 8.83018 94.2872 8.83018C93.8106 8.83018 93.4119 8.83884 93.0912 8.85618L93.0002 9.40218L92.7922 10.6112C93.3036 10.6718 93.7716 10.7022 94.1962 10.7022ZM106.543 16.4092C105.52 16.4092 104.753 16.1925 104.242 15.7592C103.73 15.3258 103.475 14.7582 103.475 14.0562C103.475 13.5448 103.583 13.1635 103.8 12.9122C104.025 12.6608 104.289 12.5352 104.593 12.5352C104.792 12.5352 104.965 12.5958 105.113 12.7172C105.26 12.8298 105.334 12.9945 105.334 13.2112C105.334 13.2285 105.321 13.3932 105.295 13.7052L105.269 13.9652C105.269 14.1645 105.39 14.3335 105.633 14.4722C105.884 14.6108 106.248 14.6802 106.725 14.6802C107.028 14.6802 107.318 14.6282 107.596 14.5242C107.882 14.4202 108.111 14.2815 108.285 14.1082C108.458 13.9348 108.545 13.7528 108.545 13.5622C108.545 13.4062 108.48 13.2588 108.35 13.1202C108.228 12.9815 108.012 12.8472 107.7 12.7172L107.193 12.5222C107.045 12.4702 106.885 12.4138 106.712 12.3532C106.538 12.2838 106.356 12.2102 106.166 12.1322C104.866 11.6035 104.216 10.8278 104.216 9.80518C104.216 9.29384 104.385 8.81284 104.723 8.36218C105.061 7.91151 105.507 7.55184 106.062 7.28318C106.616 7.01451 107.206 6.88018 107.83 6.88018C108.748 6.88018 109.498 7.10118 110.079 7.54318C110.659 7.98518 110.95 8.60484 110.95 9.40218C110.95 9.82684 110.859 10.1562 110.677 10.3902C110.495 10.6155 110.252 10.7282 109.949 10.7282C109.68 10.7282 109.463 10.6588 109.299 10.5202C109.143 10.3815 109.065 10.1952 109.065 9.96118C109.065 9.73584 109.06 9.57984 109.052 9.49318C109.043 9.39784 109.004 9.30684 108.935 9.22018C108.813 9.06418 108.618 8.92984 108.35 8.81718C108.09 8.69584 107.782 8.63084 107.427 8.62218C107.002 8.62218 106.668 8.70884 106.426 8.88218C106.183 9.05551 106.062 9.25918 106.062 9.49318C106.062 9.71851 106.153 9.89618 106.335 10.0262C106.525 10.1562 106.881 10.3295 107.401 10.5462C107.539 10.5982 107.643 10.6415 107.713 10.6762C108.215 10.8668 108.64 11.0488 108.987 11.2222C109.481 11.4648 109.84 11.7422 110.066 12.0542C110.3 12.3662 110.417 12.7648 110.417 13.2502C110.417 13.8395 110.222 14.3768 109.832 14.8622C109.45 15.3388 108.956 15.7158 108.35 15.9932C107.752 16.2705 107.149 16.4092 106.543 16.4092ZM113.807 15.4862C113.755 15.7375 113.62 15.9542 113.404 16.1362C113.187 16.3095 112.953 16.3962 112.702 16.3962C112.45 16.3962 112.255 16.3095 112.117 16.1362C111.978 15.9542 111.935 15.7375 111.987 15.4862C112.039 15.2348 112.294 13.9738 112.754 11.7032C113.222 9.43251 113.499 8.17151 113.586 7.92018C113.646 7.66884 113.785 7.46084 114.002 7.29618C114.218 7.12284 114.452 7.03618 114.704 7.03618C114.747 7.03618 114.79 7.04051 114.834 7.04918C114.851 7.04918 114.873 7.04484 114.899 7.03618C115.991 6.86284 116.831 6.79351 117.421 6.82818C118.591 6.90618 119.397 7.31784 119.839 8.06318C120.185 8.63518 120.294 9.24618 120.164 9.89618C120.034 10.5462 119.717 11.0922 119.215 11.5342C118.79 11.9068 118.3 12.1972 117.746 12.4052C117.191 12.6132 116.649 12.7302 116.121 12.7562C115.939 12.7648 115.748 12.7648 115.549 12.7562C115.358 12.7475 115.124 12.7302 114.847 12.7042C114.569 12.6782 114.413 12.6608 114.379 12.6522C114.119 13.9608 113.928 14.9055 113.807 15.4862ZM116.42 10.9362C116.74 10.9275 117.057 10.8668 117.369 10.7542C117.681 10.6328 117.923 10.4898 118.097 10.3252C118.183 10.2472 118.244 10.1778 118.279 10.1172C118.322 10.0478 118.344 9.92218 118.344 9.74018C118.344 9.55818 118.296 9.38051 118.201 9.20718C117.993 8.86918 117.568 8.68284 116.927 8.64818C116.493 8.62218 115.921 8.66118 115.211 8.76518C115.081 9.34584 114.929 10.0348 114.756 10.8322H114.769L115.367 10.8972C115.583 10.9145 115.774 10.9275 115.939 10.9362C116.103 10.9448 116.264 10.9448 116.42 10.9362ZM126.732 16.3182C125.449 16.3182 123.703 16.3052 121.493 16.2792C121.319 16.2792 121.172 16.2315 121.051 16.1362C120.929 16.0322 120.847 15.9065 120.804 15.7592C120.734 15.6032 120.721 15.4342 120.765 15.2522C120.834 14.9488 121.09 13.7268 121.532 11.5862C121.852 10.0262 122.151 8.79984 122.429 7.90718C122.463 7.79451 122.511 7.69051 122.572 7.59518C122.676 7.42184 122.81 7.28318 122.975 7.17918C123.148 7.06651 123.334 7.00584 123.534 6.99718C124.166 6.98851 125.02 6.98851 126.095 6.99718C127.169 6.99718 128.023 6.99284 128.656 6.98418C128.907 6.98418 129.102 7.07084 129.241 7.24418C129.379 7.41751 129.423 7.62984 129.371 7.88118C129.319 8.12384 129.189 8.33618 128.981 8.51818C128.781 8.69151 128.556 8.77818 128.305 8.77818C127.819 8.77818 127.096 8.77818 126.134 8.77818C125.172 8.76951 124.448 8.76951 123.963 8.77818C123.824 9.30684 123.672 9.93084 123.508 10.6502C123.924 10.6415 125.206 10.6372 127.356 10.6372C127.607 10.6372 127.802 10.7238 127.941 10.8972C128.088 11.0705 128.136 11.2828 128.084 11.5342C128.032 11.7768 127.897 11.9892 127.681 12.1712C127.464 12.3445 127.23 12.4312 126.979 12.4312C124.821 12.4312 123.542 12.4355 123.144 12.4442C122.953 13.4148 122.81 14.0995 122.715 14.4982C124.474 14.5155 125.943 14.5242 127.122 14.5242C127.373 14.5242 127.564 14.6108 127.694 14.7842C127.832 14.9575 127.876 15.1698 127.824 15.4212C127.772 15.6725 127.637 15.8848 127.421 16.0582C127.213 16.2315 126.983 16.3182 126.732 16.3182ZM135.712 16.3182C134.429 16.3182 132.683 16.3052 130.473 16.2792C130.3 16.2792 130.152 16.2315 130.031 16.1362C129.91 16.0322 129.827 15.9065 129.784 15.7592C129.715 15.6032 129.702 15.4342 129.745 15.2522C129.814 14.9488 130.07 13.7268 130.512 11.5862C130.833 10.0262 131.132 8.79984 131.409 7.90718C131.444 7.79451 131.491 7.69051 131.552 7.59518C131.656 7.42184 131.79 7.28318 131.955 7.17918C132.128 7.06651 132.315 7.00584 132.514 6.99718C133.147 6.98851 134 6.98851 135.075 6.99718C136.15 6.99718 137.003 6.99284 137.636 6.98418C137.887 6.98418 138.082 7.07084 138.221 7.24418C138.36 7.41751 138.403 7.62984 138.351 7.88118C138.299 8.12384 138.169 8.33618 137.961 8.51818C137.762 8.69151 137.536 8.77818 137.285 8.77818C136.8 8.77818 136.076 8.77818 135.114 8.77818C134.152 8.76951 133.428 8.76951 132.943 8.77818C132.804 9.30684 132.653 9.93084 132.488 10.6502C132.904 10.6415 134.187 10.6372 136.336 10.6372C136.587 10.6372 136.782 10.7238 136.921 10.8972C137.068 11.0705 137.116 11.2828 137.064 11.5342C137.012 11.7768 136.878 11.9892 136.661 12.1712C136.444 12.3445 136.21 12.4312 135.959 12.4312C133.801 12.4312 132.523 12.4355 132.124 12.4442C131.933 13.4148 131.79 14.0995 131.695 14.4982C133.454 14.5155 134.923 14.5242 136.102 14.5242C136.353 14.5242 136.544 14.6108 136.674 14.7842C136.813 14.9575 136.856 15.1698 136.804 15.4212C136.752 15.6725 136.618 15.8848 136.401 16.0582C136.193 16.2315 135.963 16.3182 135.712 16.3182ZM139.401 16.2922C139.167 16.2835 138.981 16.1925 138.842 16.0192C138.704 15.8458 138.66 15.6335 138.712 15.3822L139.492 11.6382C139.752 10.3295 140.025 9.12051 140.311 8.01118C140.372 7.77718 140.511 7.57351 140.727 7.40017C140.953 7.22684 141.191 7.14451 141.442 7.15318C141.581 7.11851 141.837 7.08818 142.209 7.06218C142.582 7.02751 142.989 7.01018 143.431 7.01018C144.593 7.01018 145.52 7.30051 146.213 7.88118C146.915 8.45318 147.266 9.28951 147.266 10.3902C147.266 11.2308 147.058 12.0498 146.642 12.8472C146.226 13.6445 145.698 14.3422 145.056 14.9402C144.528 15.4255 143.934 15.7765 143.275 15.9932C142.617 16.2012 141.949 16.3052 141.273 16.3052C140.259 16.3052 139.635 16.3008 139.401 16.2922ZM140.701 14.5892C141.213 14.5892 141.551 14.5848 141.715 14.5762C142.374 14.5415 142.911 14.4245 143.327 14.2252C143.743 14.0258 144.116 13.7182 144.445 13.3022C144.783 12.8688 145.035 12.4225 145.199 11.9632C145.364 11.5038 145.446 11.0705 145.446 10.6632C145.446 9.99584 145.247 9.50618 144.848 9.19418C144.458 8.87351 143.813 8.71318 142.911 8.71318C142.617 8.71318 142.287 8.72618 141.923 8.75218L141.507 10.6502L141.039 12.9512C140.909 13.6012 140.797 14.1472 140.701 14.5892ZM72.732 32.2922C71.952 32.2922 71.25 32.1362 70.626 31.8242C70.0107 31.5035 69.5253 31.0528 69.17 30.4722C68.8147 29.8828 68.637 29.2068 68.637 28.4442C68.637 27.4475 68.8797 26.5245 69.365 25.6752C69.859 24.8172 70.522 24.1368 71.354 23.6342C72.1947 23.1315 73.1047 22.8802 74.084 22.8802C74.3093 22.8802 74.474 22.8888 74.578 22.9062C74.682 22.9235 74.8423 22.9668 75.059 23.0362L75.384 23.1402C75.5487 23.1922 75.7177 23.2485 75.891 23.3092C76.0643 23.3698 76.2117 23.4392 76.333 23.5172C76.827 23.8552 77.2127 24.3145 77.49 24.8952C77.7673 25.4672 77.906 26.1128 77.906 26.8322C77.906 27.7682 77.6677 28.6565 77.191 29.4972C76.723 30.3378 76.0903 31.0138 75.293 31.5252C74.5043 32.0365 73.6507 32.2922 72.732 32.2922ZM73.031 30.5372C73.6117 30.5372 74.1317 30.3812 74.591 30.0692C75.059 29.7485 75.423 29.3325 75.683 28.8212C75.9517 28.3012 76.086 27.7552 76.086 27.1832C76.086 26.7758 75.9907 26.3512 75.8 25.9092C75.618 25.4672 75.3883 25.1552 75.111 24.9732C75.007 24.9038 74.8163 24.8388 74.539 24.7782C74.4783 24.7608 74.4133 24.7435 74.344 24.7262C74.2747 24.7002 74.201 24.6785 74.123 24.6612C73.8977 24.6438 73.707 24.6352 73.551 24.6352C73.005 24.6352 72.4937 24.7998 72.017 25.1292C71.5403 25.4498 71.1633 25.8788 70.886 26.4162C70.6087 26.9535 70.47 27.5212 70.47 28.1192C70.47 28.9078 70.691 29.5102 71.133 29.9262C71.5837 30.3335 72.2163 30.5372 73.031 30.5372ZM80.7792 31.4862C80.7272 31.7375 80.5929 31.9542 80.3762 32.1362C80.1595 32.3095 79.9255 32.3962 79.6742 32.3962C79.4229 32.3962 79.2279 32.3095 79.0892 32.1362C78.9505 31.9542 78.9072 31.7375 78.9592 31.4862C79.0112 31.2348 79.2669 29.9738 79.7262 27.7032C80.1942 25.4325 80.4715 24.1715 80.5582 23.9202C80.6189 23.6688 80.7575 23.4608 80.9742 23.2962C81.1909 23.1228 81.4249 23.0362 81.6762 23.0362C81.7195 23.0362 81.7629 23.0405 81.8062 23.0492C81.8235 23.0492 81.8452 23.0448 81.8712 23.0362C82.9632 22.8628 83.8039 22.7935 84.3932 22.8282C85.5632 22.9062 86.3692 23.3178 86.8112 24.0632C87.1579 24.6352 87.2662 25.2462 87.1362 25.8962C87.0062 26.5462 86.6899 27.0922 86.1872 27.5342C85.7625 27.9068 85.2729 28.1972 84.7182 28.4052C84.1635 28.6132 83.6219 28.7302 83.0932 28.7562C82.9112 28.7648 82.7205 28.7648 82.5212 28.7562C82.3305 28.7475 82.0965 28.7302 81.8192 28.7042C81.5419 28.6782 81.3859 28.6608 81.3512 28.6522C81.0912 29.9608 80.9005 30.9055 80.7792 31.4862ZM83.3922 26.9362C83.7129 26.9275 84.0292 26.8668 84.3412 26.7542C84.6532 26.6328 84.8959 26.4898 85.0692 26.3252C85.1559 26.2472 85.2165 26.1778 85.2512 26.1172C85.2945 26.0478 85.3162 25.9222 85.3162 25.7402C85.3162 25.5582 85.2685 25.3805 85.1732 25.2072C84.9652 24.8692 84.5405 24.6828 83.8992 24.6482C83.4659 24.6222 82.8939 24.6612 82.1832 24.7652C82.0532 25.3458 81.9015 26.0348 81.7282 26.8322H81.7412L82.3392 26.8972C82.5559 26.9145 82.7465 26.9275 82.9112 26.9362C83.0759 26.9448 83.2362 26.9448 83.3922 26.9362ZM91.2602 31.4082C91.1995 31.6595 91.0608 31.8718 90.8442 32.0452C90.6362 32.2185 90.4065 32.3052 90.1552 32.3052C89.9038 32.2965 89.7088 32.2055 89.5702 32.0322C89.4315 31.8502 89.3925 31.6335 89.4532 31.3822C89.5138 31.1135 89.7695 29.8872 90.2202 27.7032C90.4455 26.5852 90.6665 25.6102 90.8832 24.7782C90.1898 24.7868 89.6048 24.7912 89.1282 24.7912C88.8768 24.7912 88.6775 24.7088 88.5302 24.5442C88.3915 24.3795 88.3438 24.1715 88.3872 23.9202C88.4392 23.6688 88.5692 23.4608 88.7772 23.2962C88.9938 23.1228 89.2278 23.0362 89.4792 23.0362C90.0338 23.0362 90.9525 23.0318 92.2352 23.0232C93.5178 23.0145 94.4365 23.0102 94.9912 23.0102C95.2425 23.0102 95.4375 23.0925 95.5762 23.2572C95.7235 23.4132 95.7712 23.6168 95.7192 23.8682C95.6758 24.1108 95.5458 24.3232 95.3292 24.5052C95.1212 24.6785 94.8958 24.7652 94.6532 24.7652C94.1072 24.7652 93.4572 24.7695 92.7032 24.7782C92.4952 25.5755 92.2742 26.5462 92.0402 27.6902C91.5895 29.9002 91.3295 31.1395 91.2602 31.4082ZM96.0131 32.3442C95.7618 32.3442 95.5624 32.2618 95.4151 32.0972C95.2678 31.9238 95.2158 31.7115 95.2591 31.4602C95.3111 31.2348 95.4281 31.0355 95.6101 30.8622C95.7921 30.6802 95.9914 30.5718 96.2081 30.5372C96.5374 29.0292 96.9404 27.1182 97.4171 24.8042C97.2178 24.7608 97.0661 24.6568 96.9621 24.4922C96.8581 24.3275 96.8321 24.1325 96.8841 23.9072C96.9361 23.6558 97.0704 23.4435 97.2871 23.2702C97.5038 23.0968 97.7378 23.0102 97.9891 23.0102L99.4581 23.0232C99.7094 23.0232 99.9001 23.1142 100.03 23.2962C100.169 23.4782 100.212 23.6948 100.16 23.9462C100.117 24.1628 100.004 24.3535 99.8221 24.5182C99.6488 24.6828 99.4494 24.7868 99.2241 24.8302C98.7648 27.1095 98.3704 28.9988 98.0411 30.4982C98.2491 30.5328 98.4051 30.6325 98.5091 30.7972C98.6218 30.9618 98.6608 31.1525 98.6261 31.3692C98.5741 31.6205 98.4441 31.8372 98.2361 32.0192C98.0281 32.2012 97.7984 32.2965 97.5471 32.3052L96.0131 32.3442ZM109.874 31.4342C109.814 31.6855 109.671 31.8978 109.445 32.0712C109.229 32.2445 108.995 32.3268 108.743 32.3182C108.501 32.3095 108.31 32.2142 108.171 32.0322C108.033 31.8502 107.998 31.6335 108.067 31.3822C108.197 30.8188 108.54 29.1548 109.094 26.3902C108.28 27.1962 107.465 28.0585 106.65 28.9772C106.46 29.1852 106.234 29.3152 105.974 29.3672C105.723 29.4105 105.511 29.3628 105.337 29.2242C105.311 29.2068 105.294 29.1895 105.285 29.1722C105.199 29.1115 105.129 29.0378 105.077 28.9512L103.621 26.4292C103.621 26.4465 103.444 27.2785 103.088 28.9252C102.742 30.5632 102.564 31.3865 102.555 31.3952C102.503 31.6465 102.369 31.8632 102.152 32.0452C101.944 32.2185 101.715 32.3052 101.463 32.3052C101.212 32.3052 101.013 32.2185 100.865 32.0452C100.727 31.8632 100.683 31.6465 100.735 31.3952C100.813 31.0312 100.943 30.4202 101.125 29.5622C101.316 28.7042 101.459 28.0412 101.554 27.5732C101.658 27.1052 101.775 26.5245 101.905 25.8312C102.018 25.2158 102.126 24.5788 102.23 23.9202C102.265 23.6688 102.382 23.4478 102.581 23.2572C102.789 23.0665 103.023 22.9625 103.283 22.9452C103.413 22.9365 103.53 22.9538 103.634 22.9972C103.868 23.0318 104.037 23.1488 104.141 23.3482L106.26 26.9752C107.474 25.6752 108.674 24.5052 109.861 23.4652C110.113 23.1532 110.412 23.0015 110.758 23.0102C111.01 23.0188 111.2 23.1142 111.33 23.2962C111.469 23.4782 111.508 23.6948 111.447 23.9462C111.248 24.7695 110.979 26.0305 110.641 27.7292C110.312 29.4192 110.056 30.6542 109.874 31.4342ZM112.666 32.3442C112.415 32.3442 112.216 32.2618 112.068 32.0972C111.921 31.9238 111.869 31.7115 111.912 31.4602C111.964 31.2348 112.081 31.0355 112.263 30.8622C112.445 30.6802 112.645 30.5718 112.861 30.5372C113.191 29.0292 113.594 27.1182 114.07 24.8042C113.871 24.7608 113.719 24.6568 113.615 24.4922C113.511 24.3275 113.485 24.1325 113.537 23.9072C113.589 23.6558 113.724 23.4435 113.94 23.2702C114.157 23.0968 114.391 23.0102 114.642 23.0102L116.111 23.0232C116.363 23.0232 116.553 23.1142 116.683 23.2962C116.822 23.4782 116.865 23.6948 116.813 23.9462C116.77 24.1628 116.657 24.3535 116.475 24.5182C116.302 24.6828 116.103 24.7868 115.877 24.8302C115.418 27.1095 115.024 28.9988 114.694 30.4982C114.902 30.5328 115.058 30.6325 115.162 30.7972C115.275 30.9618 115.314 31.1525 115.279 31.3692C115.227 31.6205 115.097 31.8372 114.889 32.0192C114.681 32.2012 114.452 32.2965 114.2 32.3052L112.666 32.3442ZM120.093 32.3052C118.914 32.3052 117.948 32.2878 117.194 32.2532C116.96 32.2445 116.782 32.1492 116.661 31.9672C116.539 31.7852 116.509 31.5728 116.57 31.3302C116.63 31.0875 116.773 30.8795 116.999 30.7062C117.302 30.4288 117.818 29.9088 118.546 29.1462C121.18 26.7368 122.684 25.2895 123.057 24.8042C121.167 24.8388 119.794 24.8258 118.936 24.7652C118.693 24.7478 118.511 24.6482 118.39 24.4662C118.277 24.2842 118.255 24.0675 118.325 23.8162C118.394 23.5648 118.533 23.3612 118.741 23.2052C118.957 23.0405 119.183 22.9668 119.417 22.9842C119.98 23.0188 120.565 23.0405 121.172 23.0492C121.787 23.0578 122.489 23.0535 123.278 23.0362C124.075 23.0188 124.669 23.0102 125.059 23.0102C125.293 23.0102 125.475 23.0968 125.605 23.2702C125.743 23.4435 125.787 23.6515 125.735 23.8942C125.683 24.1195 125.574 24.3145 125.41 24.4792C125.392 24.5052 125.375 24.5312 125.358 24.5572C124.959 25.1552 124.543 25.6752 124.11 26.1172C123.685 26.5505 122.216 27.9112 119.703 30.1992L119.378 30.5242C119.664 30.5242 120.01 30.5328 120.418 30.5502C122.082 30.5155 123.083 30.4982 123.421 30.4982C123.655 30.4982 123.837 30.5848 123.967 30.7582C124.105 30.9315 124.149 31.1395 124.097 31.3822C124.045 31.6162 123.915 31.8198 123.707 31.9932C123.499 32.1665 123.278 32.2532 123.044 32.2532C122.723 32.2532 121.739 32.2705 120.093 32.3052ZM124.898 31.7722C124.881 31.6855 124.872 31.6205 124.872 31.5772C124.872 31.4125 124.924 31.2478 125.028 31.0832L129.539 23.7122C129.834 23.2355 130.189 22.9972 130.605 22.9972C130.848 22.9972 131.043 23.0622 131.19 23.1922C131.338 23.3135 131.433 23.4868 131.476 23.7122L131.84 25.9222L132.269 28.7172L132.646 31.0572C132.681 31.2825 132.651 31.4905 132.555 31.6812C132.469 31.8718 132.343 32.0235 132.178 32.1362C132.022 32.2488 131.862 32.3052 131.697 32.3052C131.264 32.3052 131.008 32.1188 130.93 31.7462L130.618 29.7702L127.732 29.8352L126.601 31.7722C126.489 31.9455 126.341 32.0842 126.159 32.1882C125.986 32.2835 125.808 32.3312 125.626 32.3312C125.453 32.3312 125.301 32.2835 125.171 32.1882C125.033 32.0928 124.942 31.9542 124.898 31.7722ZM130.332 28.0412L130.072 26.1562L128.837 28.0672L130.332 28.0412ZM136.599 31.4082C136.538 31.6595 136.4 31.8718 136.183 32.0452C135.975 32.2185 135.745 32.3052 135.494 32.3052C135.243 32.2965 135.048 32.2055 134.909 32.0322C134.77 31.8502 134.731 31.6335 134.792 31.3822C134.853 31.1135 135.108 29.8872 135.559 27.7032C135.784 26.5852 136.005 25.6102 136.222 24.7782C135.529 24.7868 134.944 24.7912 134.467 24.7912C134.216 24.7912 134.016 24.7088 133.869 24.5442C133.73 24.3795 133.683 24.1715 133.726 23.9202C133.778 23.6688 133.908 23.4608 134.116 23.2962C134.333 23.1228 134.567 23.0362 134.818 23.0362C135.373 23.0362 136.291 23.0318 137.574 23.0232C138.857 23.0145 139.775 23.0102 140.33 23.0102C140.581 23.0102 140.776 23.0925 140.915 23.2572C141.062 23.4132 141.11 23.6168 141.058 23.8682C141.015 24.1108 140.885 24.3232 140.668 24.5052C140.46 24.6785 140.235 24.7652 139.992 24.7652C139.446 24.7652 138.796 24.7695 138.042 24.7782C137.834 25.5755 137.613 26.5462 137.379 27.6902C136.928 29.9002 136.668 31.1395 136.599 31.4082ZM141.352 32.3442C141.101 32.3442 140.901 32.2618 140.754 32.0972C140.607 31.9238 140.555 31.7115 140.598 31.4602C140.65 31.2348 140.767 31.0355 140.949 30.8622C141.131 30.6802 141.33 30.5718 141.547 30.5372C141.876 29.0292 142.279 27.1182 142.756 24.8042C142.557 24.7608 142.405 24.6568 142.301 24.4922C142.197 24.3275 142.171 24.1325 142.223 23.9072C142.275 23.6558 142.409 23.4435 142.626 23.2702C142.843 23.0968 143.077 23.0102 143.328 23.0102L144.797 23.0232C145.048 23.0232 145.239 23.1142 145.369 23.2962C145.508 23.4782 145.551 23.6948 145.499 23.9462C145.456 24.1628 145.343 24.3535 145.161 24.5182C144.988 24.6828 144.788 24.7868 144.563 24.8302C144.104 27.1095 143.709 28.9988 143.38 30.4982C143.588 30.5328 143.744 30.6325 143.848 30.7972C143.961 30.9618 144 31.1525 143.965 31.3692C143.913 31.6205 143.783 31.8372 143.575 32.0192C143.367 32.2012 143.137 32.2965 142.886 32.3052L141.352 32.3442ZM150.26 32.2922C149.48 32.2922 148.778 32.1362 148.154 31.8242C147.539 31.5035 147.054 31.0528 146.698 30.4722C146.343 29.8828 146.165 29.2068 146.165 28.4442C146.165 27.4475 146.408 26.5245 146.893 25.6752C147.387 24.8172 148.05 24.1368 148.882 23.6342C149.723 23.1315 150.633 22.8802 151.612 22.8802C151.838 22.8802 152.002 22.8888 152.106 22.9062C152.21 22.9235 152.371 22.9668 152.587 23.0362L152.912 23.1402C153.077 23.1922 153.246 23.2485 153.419 23.3092C153.593 23.3698 153.74 23.4392 153.861 23.5172C154.355 23.8552 154.741 24.3145 155.018 24.8952C155.296 25.4672 155.434 26.1128 155.434 26.8322C155.434 27.7682 155.196 28.6565 154.719 29.4972C154.251 30.3378 153.619 31.0138 152.821 31.5252C152.033 32.0365 151.179 32.2922 150.26 32.2922ZM150.559 30.5372C151.14 30.5372 151.66 30.3812 152.119 30.0692C152.587 29.7485 152.951 29.3325 153.211 28.8212C153.48 28.3012 153.614 27.7552 153.614 27.1832C153.614 26.7758 153.519 26.3512 153.328 25.9092C153.146 25.4672 152.917 25.1552 152.639 24.9732C152.535 24.9038 152.345 24.8388 152.067 24.7782C152.007 24.7608 151.942 24.7435 151.872 24.7262C151.803 24.7002 151.729 24.6785 151.651 24.6612C151.426 24.6438 151.235 24.6352 151.079 24.6352C150.533 24.6352 150.022 24.7998 149.545 25.1292C149.069 25.4498 148.692 25.8788 148.414 26.4162C148.137 26.9535 147.998 27.5212 147.998 28.1192C147.998 28.9078 148.219 29.5102 148.661 29.9262C149.112 30.3335 149.745 30.5372 150.559 30.5372ZM163.183 32.2532C162.836 32.3138 162.576 32.2098 162.403 31.9412C161.969 31.2565 161.454 30.2425 160.856 28.8992C160.188 27.5385 159.703 26.6155 159.4 26.1302C159.339 26.4768 159.2 27.2482 158.984 28.4442C158.767 29.6315 158.572 30.6195 158.399 31.4082C158.347 31.6595 158.212 31.8762 157.996 32.0582C157.779 32.2315 157.545 32.3182 157.294 32.3182C157.042 32.3182 156.847 32.2315 156.709 32.0582C156.57 31.8762 156.527 31.6595 156.579 31.4082C156.743 30.6455 156.982 29.4148 157.294 27.7162C157.606 26.0088 157.874 24.7175 158.1 23.8422C158.16 23.5908 158.299 23.3785 158.516 23.2052C158.741 23.0318 158.975 22.9495 159.218 22.9582C159.339 22.9668 159.452 22.9928 159.556 23.0362C159.712 23.0882 159.833 23.1835 159.92 23.3222C160.032 23.5042 160.21 23.7945 160.453 24.1932C160.704 24.5832 160.89 24.8778 161.012 25.0772C161.384 25.5798 161.904 26.5072 162.572 27.8592L163.014 28.7562C163.464 26.7455 163.815 25.1118 164.067 23.8552C164.119 23.6038 164.249 23.3915 164.457 23.2182C164.673 23.0362 164.907 22.9452 165.159 22.9452C165.41 22.9365 165.605 23.0188 165.744 23.1922C165.882 23.3655 165.93 23.5778 165.887 23.8292C165.644 25.0078 165.098 27.5168 164.249 31.3562C164.188 31.5988 164.058 31.8068 163.859 31.9802C163.659 32.1448 163.434 32.2358 163.183 32.2532Z" fill="#14161B"/>
</g>
</svg>
