<svg width="66" height="66" viewBox="0 0 66 66" fill="none" xmlns="http://www.w3.org/2000/svg">
<path d="M33 66C14.7746 66 0 51.2254 0 33C0 14.7746 14.7746 0 33 0C51.2254 0 66 14.7746 66 33C66 51.2254 51.2254 66 33 66ZM33 64C50.1208 64 64 50.1208 64 33C64 15.8792 50.1208 2 33 2C15.8792 2 2 15.8792 2 33C2 50.1208 15.8792 64 33 64ZM57 32C57.5523 32 58 32.4477 58 33C58 33.5523 57.5523 34 57 34H51C50.4477 34 50 33.5523 50 33C50 32.4477 50.4477 32 51 32H57ZM54.2846 44.1339C54.7629 44.4101 54.9268 45.0217 54.6506 45.5C54.3745 45.9783 53.7629 46.1422 53.2846 45.8661L48.0884 42.8661C47.6101 42.5899 47.4463 41.9783 47.7224 41.5C47.9986 41.0217 48.6101 40.8578 49.0884 41.1339L54.2846 44.1339ZM45.866 53.2847C46.1422 53.763 45.9783 54.3745 45.5 54.6506C45.0217 54.9268 44.4101 54.763 44.134 54.2847L41.134 49.0885C40.8578 48.6102 41.0217 47.9986 41.5 47.7224C41.9783 47.4463 42.5899 47.6102 42.866 48.0885L45.866 53.2847ZM34 57C34 57.5523 33.5523 58 33 58C32.4477 58 32 57.5523 32 57V51C32 50.4477 32.4477 50 33 50C33.5523 50 34 50.4477 34 51V57ZM21.866 54.2847C21.5899 54.763 20.9783 54.9268 20.5 54.6506C20.0217 54.3745 19.8578 53.763 20.134 53.2847L23.134 48.0885C23.4101 47.6102 24.0217 47.4463 24.5 47.7224C24.9783 47.9986 25.1422 48.6102 24.866 49.0885L21.866 54.2847ZM12.7154 45.8661C12.2371 46.1422 11.6255 45.9783 11.3494 45.5C11.0732 45.0217 11.2371 44.4101 11.7154 44.1339L16.9116 41.1339C17.3899 40.8578 18.0014 41.0217 18.2776 41.5C18.5537 41.9783 18.3899 42.5899 17.9116 42.8661L12.7154 45.8661ZM9 34C8.44771 34 8 33.5523 8 33C8 32.4477 8.44771 32 9 32H15C15.5523 32 16 32.4477 16 33C16 33.5523 15.5523 34 15 34H9Z" fill="#14161B"/>
<path d="M33 8C32.4477 8 32 8.44772 32 9V15C32 15.5523 32.4477 16 33 16C33.5523 16 34 15.5523 34 15V9C34 8.44772 33.5523 8 33 8Z" fill="#DA1648"/>
<path d="M45.5 11.3494C45.0217 11.0732 44.4101 11.237 44.134 11.7153L41.134 16.9115C40.8578 17.3898 41.0217 18.0014 41.5 18.2776C41.9783 18.5537 42.5899 18.3898 42.866 17.9115L45.866 12.7153C46.1422 12.237 45.9783 11.6255 45.5 11.3494Z" fill="#DA1648"/>
<path d="M54.6506 20.5C54.3745 20.0217 53.7629 19.8578 53.2846 20.1339L48.0884 23.1339C47.6101 23.4101 47.4463 24.0217 47.7224 24.5C47.9986 24.9783 48.6101 25.1422 49.0884 24.8661L54.2846 21.8661C54.7629 21.5899 54.9268 20.9783 54.6506 20.5Z" fill="#DA1648"/>
</svg>
