<svg width="51" height="32" viewBox="0 0 51 32" fill="none" xmlns="http://www.w3.org/2000/svg">
<path fill-rule="evenodd" clip-rule="evenodd" d="M22.9884 7.35669C23.1969 7.58335 23.3964 7.81955 23.5867 8.07028L23.6594 8.16657C23.7072 8.23153 23.755 8.29648 23.8019 8.36234L23.8095 8.37324C23.9469 8.5681 24.0784 8.76751 24.2023 8.97146C24.2023 8.97146 24.2615 9.06866 24.2966 9.12907C24.3583 9.23445 24.4188 9.34119 24.4767 9.44884C24.4767 9.44884 24.5557 9.59647 24.6183 9.72183C24.6183 9.72183 24.6614 9.80813 24.6944 9.87536C24.7811 10.0566 24.8635 10.2396 24.9405 10.425C24.9405 10.425 25.0318 10.6503 25.0787 10.7761C25.0914 10.8097 25.1054 10.8483 25.1054 10.8483C25.1388 10.9405 25.1713 11.0327 25.203 11.1276C25.203 11.1276 25.2331 11.2171 25.2614 11.3066L25.2901 11.3984C25.329 11.5292 25.3671 11.66 25.4022 11.7922C25.4022 11.7922 25.4254 11.8826 25.4423 11.9489C25.4542 11.9961 25.4686 12.0561 25.4686 12.0561C25.4812 12.1106 25.4977 12.181 25.4977 12.181C25.5104 12.24 25.5277 12.3204 25.5277 12.3204C25.5387 12.3722 25.5493 12.4235 25.5595 12.4753L25.5844 12.6057C25.5954 12.6656 25.6098 12.7474 25.6098 12.7474C25.6199 12.8074 25.633 12.8887 25.633 12.8887C25.6584 13.0504 25.6808 13.2116 25.6986 13.3742C25.6986 13.3742 25.7045 13.4287 25.7104 13.4851C25.7104 13.4851 25.7349 13.7367 25.7476 13.9447C25.7561 14.0819 25.7624 14.2195 25.7654 14.3581C25.7654 14.3581 25.7675 14.4603 25.7679 14.5243C25.7683 14.5729 25.7683 14.6392 25.7683 14.6392C25.7683 14.6674 25.7679 14.696 25.7679 14.7242C25.7666 14.8691 25.7628 15.014 25.7561 15.1557C25.7561 15.1557 25.7527 15.2211 25.7497 15.2697C25.7366 15.5 25.7163 15.7289 25.6893 15.9533C25.6893 15.9533 25.6795 16.0346 25.6707 16.1014C25.6588 16.1913 25.6453 16.2813 25.6313 16.3716C25.6313 16.3716 25.6047 16.5356 25.5844 16.6446C25.5679 16.7323 25.5506 16.8209 25.532 16.909C25.532 16.909 25.5113 17.0057 25.4973 17.0689C25.4728 17.177 25.4462 17.2846 25.4191 17.3918L25.4064 17.44C25.3959 17.4786 25.3827 17.529 25.3827 17.529C25.3561 17.6257 25.3291 17.722 25.2999 17.8179C25.2999 17.8179 25.2804 17.8815 25.2665 17.9255C25.2542 17.9641 25.2386 18.0127 25.2386 18.0127C25.2242 18.0582 25.2039 18.1181 25.2039 18.1181C25.1853 18.1744 25.1587 18.2512 25.1587 18.2512C25.1358 18.3157 25.113 18.3802 25.0893 18.4438L25.0504 18.5474C24.9659 18.7654 24.8762 18.9816 24.779 19.1933C24.6742 19.4213 24.5608 19.6457 24.4403 19.866C24.4205 19.9019 24.3964 19.9459 24.3964 19.9459C24.371 19.9904 24.3456 20.0349 24.3203 20.0795C24.3203 20.0795 24.234 20.2275 24.1634 20.3406L24.0915 20.4551C24.0636 20.4987 24.0256 20.5577 24.0256 20.5577C23.9973 20.6009 23.9584 20.659 23.9584 20.659C23.9296 20.7017 23.8903 20.7594 23.8903 20.7594C23.8358 20.8389 23.7799 20.9179 23.7233 20.9952L23.7153 21.0065C23.6819 21.0515 23.6485 21.0965 23.6146 21.141C23.6146 21.141 23.5381 21.2432 23.4675 21.3317C23.4675 21.3317 23.3838 21.4362 23.3047 21.5311C23.2713 21.5707 23.2269 21.6229 23.2269 21.6229C23.2075 21.6456 23.188 21.6683 23.1682 21.6906C23.109 21.7587 23.0489 21.8259 22.9885 21.8918L22.9678 21.914L22.9272 21.9577C22.8418 22.0485 22.7555 22.1375 22.6676 22.2247C22.6676 22.2247 22.6253 22.2665 22.5919 22.2988C22.5319 22.3578 22.471 22.4151 22.4093 22.4723C22.4093 22.4723 22.3653 22.5123 22.331 22.5436C22.2845 22.5854 22.2199 22.6422 22.2199 22.6422C22.1826 22.6749 22.1454 22.7076 22.1074 22.7394C22.1074 22.7394 22.0554 22.7834 22.0161 22.8157C21.9704 22.8538 21.9247 22.8911 21.8782 22.9283L21.7742 23.0101C21.7345 23.041 21.6799 23.0823 21.6799 23.0823C21.6402 23.1123 21.5852 23.1532 21.5852 23.1532C21.4778 23.2322 21.3683 23.3099 21.2576 23.3844L21.2457 23.3925C21.2005 23.423 21.1548 23.4539 21.1088 23.4834C21.1088 23.4834 21.0014 23.5524 20.9088 23.6092C20.9088 23.6092 20.8648 23.6364 20.8191 23.6637C20.8191 23.6637 20.7515 23.7046 20.6915 23.7391C20.6492 23.7636 20.5913 23.7959 20.5913 23.7959C20.3575 23.9271 20.1186 24.0493 19.8746 24.1588L19.7934 24.1951C19.7118 24.2301 19.6307 24.2655 19.5482 24.2987C19.5482 24.2987 19.4628 24.3332 19.4091 24.3546C19.3263 24.3864 19.2425 24.4172 19.1588 24.4472C19.1588 24.4472 19.0544 24.484 18.9496 24.5185L18.8629 24.5462C18.7441 24.5839 18.6244 24.6189 18.5039 24.6521L18.4029 24.6789C18.3107 24.7025 18.2181 24.7257 18.1251 24.7456L18.0376 24.7652L17.9353 24.787C17.8609 24.8015 17.7856 24.816 17.7112 24.8288C17.7112 24.8288 17.6503 24.8397 17.6055 24.8469C17.4668 24.8696 17.3286 24.8901 17.1852 24.906L17.0639 24.9192C17.0123 24.9246 16.943 24.931 16.943 24.931C16.9121 24.9332 16.8804 24.9364 16.8804 24.9364C16.8276 24.9405 16.7586 24.9455 16.7586 24.9455C16.6572 24.9519 16.5549 24.9573 16.4534 24.9609L16.4373 24.9618C16.354 24.9641 16.2716 24.9655 16.1874 24.9659L16.1718 24.9664L7.49948 24.9664L7.37095 24.9573C7.25891 24.9332 7.22889 24.9327 7.12277 24.886C6.80609 24.7447 6.56933 24.4149 6.52367 24.047C6.51859 24.0016 6.51859 23.9553 6.51563 23.9094L6.5156 14.5924C6.5156 14.5479 6.51603 14.492 6.51603 14.492C6.51941 14.2767 6.52744 14.0618 6.54224 13.8479L6.54816 13.7634C6.55154 13.7271 6.55492 13.6835 6.55492 13.6835C6.55999 13.6235 6.56507 13.5636 6.57183 13.5036L6.58155 13.4069L6.58874 13.3428C6.5972 13.2729 6.60903 13.1784 6.60903 13.1784C6.61495 13.1366 6.62045 13.0944 6.62637 13.0517C6.63229 13.009 6.64032 12.9549 6.64032 12.9549C6.65004 12.8936 6.66315 12.8105 6.66315 12.8105C6.67414 12.7478 6.68471 12.6846 6.69613 12.6224L6.71727 12.5098C6.7215 12.4898 6.7253 12.4693 6.72953 12.4485C6.7439 12.3758 6.75912 12.3022 6.77519 12.2295C6.77519 12.2295 6.79125 12.1568 6.80394 12.1032C6.8107 12.0751 6.81831 12.0424 6.81831 12.0424C6.82677 12.0088 6.83734 11.9665 6.83734 11.9665C6.84284 11.9425 6.84918 11.9184 6.84918 11.9184C6.85763 11.8848 6.8682 11.8425 6.8682 11.8425C6.88216 11.7903 6.90118 11.7199 6.90118 11.7199C6.9126 11.6776 6.92697 11.6259 6.92697 11.6259C6.94304 11.5704 6.95868 11.5155 6.97517 11.4605C6.97517 11.4605 7.00899 11.3479 7.03605 11.2625C7.06015 11.1884 7.08509 11.1144 7.11004 11.0413C7.11004 11.0413 7.13414 10.9718 7.15274 10.9191C7.18402 10.8319 7.21616 10.7447 7.24998 10.6584C7.24998 10.6584 7.27535 10.5921 7.29522 10.5425C7.33961 10.4313 7.38612 10.3213 7.43432 10.2123L7.43981 10.1992C7.46307 10.1469 7.48632 10.0956 7.51042 10.0434L7.56876 9.91799C7.65586 9.73721 7.74633 9.55825 7.84315 9.38337C7.84315 9.38337 7.8774 9.32114 7.90319 9.27527C7.94293 9.20441 7.98352 9.13446 8.02495 9.06451L8.03214 9.05224C8.08245 8.96912 8.13277 8.88691 8.18477 8.80469C8.18477 8.80469 8.23593 8.7243 8.2689 8.67433C8.34078 8.56532 8.41435 8.45722 8.49002 8.35138L8.49806 8.34002C8.5657 8.24555 8.63462 8.15152 8.70522 8.05932L8.71326 8.04887C8.75977 7.98891 8.80669 7.9285 8.85405 7.86945L8.8625 7.85946C8.93565 7.76907 9.00921 7.68004 9.08532 7.59283C9.08532 7.59283 9.19101 7.4711 9.27515 7.3789C9.37281 7.27215 9.47174 7.16768 9.57364 7.06639C9.57364 7.06639 9.61592 7.0237 9.64889 6.99099C9.76305 6.87925 9.87847 6.7707 9.99685 6.66532C9.99685 6.66532 10.0484 6.61989 10.0861 6.58674C10.1457 6.5345 10.2061 6.48317 10.2674 6.43275C10.2674 6.43275 10.3199 6.38915 10.3592 6.35781C10.4053 6.32011 10.4518 6.28286 10.4987 6.24698L10.6031 6.16658C10.6433 6.13615 10.6983 6.09527 10.6983 6.09527C10.7744 6.03895 10.8509 5.98399 10.9283 5.93084C10.9283 5.93084 11.0196 5.86816 11.0754 5.83091C11.1249 5.79776 11.1743 5.76551 11.2246 5.73326C11.2246 5.73326 11.2754 5.70055 11.3134 5.67693C11.3506 5.65422 11.3878 5.6306 11.4259 5.60789L11.4373 5.60108C11.4927 5.56792 11.5477 5.53522 11.6039 5.50297C11.6039 5.50297 11.6681 5.46572 11.7324 5.43029C11.7324 5.43029 11.7848 5.40122 11.8246 5.37942C11.8533 5.36398 11.8888 5.3449 11.8888 5.3449C12.0639 5.25315 12.2406 5.16503 12.4211 5.08463C12.4211 5.08463 12.5184 5.04103 12.5721 5.01786C12.6017 5.00515 12.638 4.9897 12.638 4.9897C12.7256 4.95291 12.8135 4.91748 12.9023 4.88387L12.9145 4.87887C12.975 4.85571 13.0355 4.83345 13.0963 4.81165C13.0963 4.81165 13.2828 4.74579 13.4079 4.70582L13.5352 4.6663C13.6075 4.64495 13.6794 4.62406 13.7517 4.60453C13.7517 4.60453 13.8362 4.58091 13.9115 4.56183C13.9669 4.54775 14.0413 4.52958 14.0413 4.52958C14.0802 4.5205 14.1195 4.51096 14.1588 4.50233C14.174 4.4987 14.174 4.49869 14.1897 4.49551C14.2451 4.48325 14.3207 4.46735 14.3207 4.46735C14.355 4.46054 14.3943 4.45282 14.3943 4.45282C14.4535 4.44101 14.5131 4.42965 14.5727 4.41921C14.5727 4.41921 14.7059 4.39604 14.8404 4.37606L14.9473 4.36107C15.1422 4.33609 15.3363 4.31565 15.5253 4.30338C15.5253 4.30338 15.587 4.29884 15.6475 4.29566L15.661 4.29475C15.713 4.29248 15.7646 4.28976 15.817 4.28794L15.9553 4.28385C16.0174 4.2834 16.0796 4.28204 16.1417 4.28249C16.1417 4.28249 16.214 4.28204 16.2669 4.2834C16.3282 4.28386 16.3895 4.28522 16.4508 4.28749C16.4508 4.28749 16.5933 4.2934 16.6525 4.29703C16.7028 4.2993 16.7535 4.30293 16.8038 4.30611C16.8038 4.30611 16.8677 4.31111 16.9256 4.31611C16.9256 4.31611 17.049 4.32701 17.1674 4.34064C17.1674 4.34064 17.2469 4.34972 17.3057 4.35744L17.4393 4.37561C17.4892 4.38288 17.5395 4.3906 17.5894 4.39878C17.5894 4.39878 17.6672 4.4115 17.7242 4.42194L17.8278 4.44057C17.8278 4.44057 17.9166 4.45783 18.005 4.47645C18.005 4.47645 18.0642 4.48917 18.1098 4.49916C18.2312 4.52596 18.3517 4.5564 18.4717 4.58819C18.4717 4.58819 18.6311 4.63134 18.7474 4.66632C18.8133 4.68631 18.8793 4.7072 18.9457 4.72855C18.9457 4.72855 19.0277 4.7558 19.0865 4.77624C19.1237 4.78896 19.171 4.80531 19.171 4.80531C19.2645 4.83938 19.3575 4.8739 19.4497 4.91024C19.4497 4.91024 19.4987 4.92932 19.5477 4.9493C19.5477 4.9493 19.6446 4.98882 19.724 5.02334C19.724 5.02334 19.8733 5.0883 19.9824 5.13917C20.0487 5.17051 20.1151 5.20276 20.1811 5.23547C20.1811 5.23547 20.2551 5.27226 20.3007 5.29588C20.3709 5.33222 20.4407 5.36901 20.51 5.40716C20.51 5.40716 20.5954 5.4544 20.677 5.50119C20.677 5.50119 20.7683 5.55388 20.8191 5.58477C20.8724 5.61656 20.9455 5.66153 20.9455 5.66153C21.088 5.75101 21.2283 5.84185 21.3662 5.93815C21.3662 5.93815 21.4406 5.98993 21.5002 6.03308C21.5759 6.08804 21.6507 6.14392 21.7251 6.20024C21.7957 6.25429 21.8655 6.30925 21.9344 6.36603L21.9454 6.37421C22.0338 6.44643 22.1217 6.52001 22.2075 6.59587C22.2075 6.59587 22.2536 6.63538 22.2866 6.66536C22.394 6.76075 22.4984 6.85841 22.6016 6.95925L22.6117 6.96833C22.7407 7.09506 22.8696 7.22724 22.9884 7.35669ZM21.54 8.79021C21.4068 8.64895 21.2685 8.51223 21.1248 8.37778C21.1248 8.37778 20.9261 8.19972 20.8419 8.12931C20.606 7.93218 20.3582 7.74958 20.0986 7.57971C20.0902 7.57425 20.0902 7.57425 20.0817 7.5688C20.045 7.54473 20.0077 7.52111 19.9705 7.4984C19.9621 7.49295 19.9621 7.49295 19.9532 7.48704C19.5964 7.26629 19.2311 7.08096 18.8501 6.92607C18.8315 6.9188 18.8129 6.91154 18.7943 6.90336C18.2882 6.70214 17.7606 6.56042 17.2372 6.47957C17.1814 6.47139 17.1256 6.46321 17.0702 6.4564C17.0702 6.4564 17.0152 6.44913 16.9738 6.44459C16.7848 6.42233 16.595 6.40734 16.403 6.40098C16.1324 6.3919 15.8665 6.39689 15.6006 6.41642C15.4424 6.42823 15.2856 6.44504 15.1291 6.46775C15.1291 6.46775 14.9998 6.48683 14.9152 6.50136C14.667 6.54451 14.4226 6.59993 14.196 6.66442C13.9106 6.74573 13.6274 6.84293 13.3593 6.95649C13.3073 6.97874 13.2553 7.001 13.2042 7.02416C13.1944 7.02825 13.1944 7.02825 13.1856 7.03234C13.0431 7.09638 12.9027 7.16452 12.7623 7.23992C12.638 7.30623 12.5159 7.37482 12.3932 7.44931C12.3827 7.45522 12.3721 7.46203 12.3615 7.46794C12.1848 7.57604 12.0102 7.69277 11.844 7.81496C11.6483 7.95804 11.4661 8.10475 11.2805 8.26872C11.1291 8.40226 10.9837 8.54126 10.8424 8.68661C10.8319 8.69796 10.8205 8.70932 10.8099 8.72067C10.5435 8.99775 10.2924 9.30207 10.0742 9.60549C9.85607 9.90891 9.64468 10.2514 9.46288 10.5975C9.37621 10.7624 9.29461 10.9309 9.21935 11.1026C9.12592 11.3147 9.03967 11.5328 8.96356 11.7517C8.96356 11.7517 8.91156 11.9057 8.87732 12.0124L8.87478 12.0224C8.81939 12.2009 8.76866 12.3817 8.72469 12.567C8.64225 12.9136 8.57967 13.2679 8.54205 13.5999C8.50484 13.926 8.48539 14.2485 8.48328 14.5851V14.596L8.48331 22.852C11.0488 22.852 13.6143 22.8629 16.1798 22.852C16.3282 22.8515 16.4762 22.8461 16.6229 22.8365L16.6348 22.8356C16.984 22.8102 17.3324 22.7621 17.6858 22.6848C17.964 22.624 18.2342 22.5481 18.5082 22.4518C18.5082 22.4518 18.6396 22.405 18.7407 22.3655C18.9056 22.3019 19.0684 22.2324 19.2265 22.157C19.4417 22.0539 19.6522 21.9422 19.8611 21.8168C20.2568 21.5806 20.6496 21.2868 20.9223 21.051C21.077 20.9175 21.228 20.7771 21.3743 20.63C21.3857 20.6186 21.3967 20.6077 21.4077 20.5959C21.4499 20.5532 21.4914 20.5096 21.5328 20.466C21.5328 20.466 21.6355 20.3556 21.6918 20.2916C21.8579 20.1031 22.0169 19.9077 22.1649 19.7043C22.271 19.5584 22.3725 19.4113 22.4727 19.2537C22.5534 19.126 22.6312 18.9961 22.7044 18.8658C22.7902 18.7136 22.8705 18.5592 22.947 18.4006C23.0434 18.2008 23.1326 17.9968 23.2113 17.7924C23.2874 17.5962 23.3563 17.3977 23.421 17.1883C23.484 16.9844 23.5381 16.7773 23.5855 16.5674L23.5884 16.5551C23.6167 16.4266 23.6434 16.2981 23.6658 16.1686C23.6658 16.1686 23.6895 16.0323 23.7068 15.9147C23.7165 15.847 23.7262 15.7784 23.7343 15.7098C23.7343 15.7098 23.7529 15.5572 23.763 15.4409C23.7833 15.2211 23.7952 15.0003 23.799 14.7964L23.7994 14.7832C23.7998 14.7301 23.8006 14.6774 23.8002 14.6242C23.8002 14.6242 23.8002 14.5643 23.8002 14.5189C23.7994 14.4871 23.799 14.4557 23.7985 14.4244C23.7922 14.1605 23.7744 13.8916 23.7465 13.6418C23.744 13.6191 23.7415 13.5973 23.7389 13.5754C23.7034 13.2766 23.6518 12.9759 23.588 12.6911C23.588 12.6911 23.5736 12.6275 23.5626 12.5812C23.4916 12.285 23.4066 11.9957 23.3072 11.7145C23.1977 11.4034 23.0722 11.1031 22.925 10.8033C22.7458 10.4372 22.5416 10.087 22.3124 9.75271C22.1572 9.52514 21.9919 9.30939 21.8173 9.10181C21.7273 8.99507 21.6342 8.8915 21.54 8.79021Z" fill="black"/>
<path fill-rule="evenodd" clip-rule="evenodd" d="M44.2349 7.35669C44.4433 7.58335 44.6429 7.81955 44.8331 8.07028L44.9059 8.16657C44.9536 8.23153 45.0014 8.29648 45.0484 8.36234L45.056 8.37324C45.1934 8.5681 45.3249 8.76751 45.4487 8.97146C45.4487 8.97146 45.5079 9.06866 45.543 9.12907C45.6048 9.23445 45.6652 9.34119 45.7231 9.44884C45.7231 9.44884 45.8022 9.59647 45.8648 9.72183C45.8648 9.72183 45.9079 9.80814 45.9409 9.87536C46.0275 10.0566 46.11 10.2396 46.1869 10.425C46.1869 10.425 46.2783 10.6503 46.3252 10.7761C46.3379 10.8097 46.3518 10.8483 46.3518 10.8483C46.3852 10.9405 46.4178 11.0327 46.4495 11.1276C46.4495 11.1276 46.4795 11.2171 46.5078 11.3066L46.5366 11.3984C46.5755 11.5292 46.6135 11.66 46.6486 11.7922C46.6486 11.7922 46.6719 11.8826 46.6888 11.9489C46.7006 11.9961 46.715 12.0561 46.715 12.0561C46.7277 12.1106 46.7442 12.181 46.7442 12.181C46.7569 12.24 46.7742 12.3204 46.7742 12.3204C46.7852 12.3722 46.7958 12.4235 46.8059 12.4753L46.8309 12.6057C46.8419 12.6656 46.8562 12.7474 46.8562 12.7474C46.8664 12.8074 46.8795 12.8887 46.8795 12.8887C46.9049 13.0504 46.9273 13.2116 46.945 13.3742C46.945 13.3742 46.9509 13.4287 46.9569 13.4851C46.9569 13.4851 46.9814 13.7367 46.9941 13.9447C47.0025 14.0819 47.0089 14.2195 47.0118 14.3581C47.0118 14.3581 47.0139 14.4603 47.0144 14.5243C47.0148 14.5729 47.0148 14.6392 47.0148 14.6392C47.0148 14.6674 47.0144 14.696 47.0144 14.7242C47.0131 14.8691 47.0093 15.014 47.0025 15.1557C47.0025 15.1557 46.9991 15.2211 46.9962 15.2697C46.9831 15.5 46.9628 15.7289 46.9357 15.9533C46.9357 15.9533 46.926 16.0346 46.9171 16.1014C46.9053 16.1913 46.8918 16.2813 46.8778 16.3716C46.8778 16.3716 46.8512 16.5356 46.8309 16.6446C46.8144 16.7323 46.7971 16.8209 46.7785 16.909C46.7785 16.909 46.7577 17.0057 46.7438 17.0689C46.7193 17.177 46.6926 17.2846 46.6656 17.3918L46.6529 17.44C46.6423 17.4786 46.6292 17.529 46.6292 17.529C46.6026 17.6257 46.5755 17.722 46.5463 17.8179C46.5463 17.8179 46.5269 17.8815 46.5129 17.9255C46.5007 17.9641 46.485 18.0127 46.485 18.0127C46.4707 18.0582 46.4504 18.1181 46.4504 18.1181C46.4318 18.1744 46.4051 18.2512 46.4051 18.2512C46.3823 18.3157 46.3595 18.3802 46.3358 18.4438L46.2969 18.5474C46.2123 18.7654 46.1227 18.9816 46.0255 19.1933C45.9206 19.4213 45.8073 19.6457 45.6868 19.866C45.6669 19.9019 45.6428 19.9459 45.6428 19.9459C45.6175 19.9904 45.5921 20.0349 45.5667 20.0795C45.5667 20.0795 45.4805 20.2275 45.4099 20.3406L45.338 20.4551C45.3101 20.4987 45.2721 20.5577 45.2721 20.5577C45.2437 20.6009 45.2048 20.659 45.2048 20.659C45.1761 20.7017 45.1368 20.7594 45.1368 20.7594C45.0822 20.8389 45.0264 20.9179 44.9698 20.9952L44.9617 21.0065C44.9283 21.0515 44.8949 21.0965 44.8611 21.141C44.8611 21.141 44.7846 21.2432 44.714 21.3317C44.714 21.3317 44.6303 21.4362 44.5512 21.5311C44.5178 21.5707 44.4734 21.6229 44.4734 21.6229C44.454 21.6456 44.4345 21.6683 44.4146 21.6906C44.3554 21.7587 44.2954 21.8259 44.2349 21.8918L44.2142 21.914L44.1736 21.9577C44.0882 22.0485 44.002 22.1375 43.914 22.2247C43.914 22.2247 43.8718 22.2665 43.8384 22.2988C43.7783 22.3578 43.7174 22.4151 43.6557 22.4723C43.6557 22.4723 43.6118 22.5123 43.5775 22.5436C43.531 22.5854 43.4663 22.6422 43.4663 22.6422C43.4291 22.6749 43.3919 22.7076 43.3538 22.7394C43.3538 22.7394 43.3018 22.7834 43.2625 22.8157C43.2169 22.8538 43.1712 22.8911 43.1247 22.9283L43.0207 23.0101C42.9809 23.041 42.9264 23.0823 42.9264 23.0823C42.8867 23.1123 42.8317 23.1532 42.8317 23.1532C42.7243 23.2322 42.6148 23.3099 42.504 23.3844L42.4922 23.3925C42.447 23.423 42.4013 23.4539 42.3552 23.4834C42.3552 23.4834 42.2478 23.5524 42.1552 23.6092C42.1552 23.6092 42.1113 23.6364 42.0656 23.6637C42.0656 23.6637 41.998 23.7046 41.9379 23.7391C41.8956 23.7636 41.8377 23.7959 41.8377 23.7959C41.6039 23.9271 41.365 24.0493 41.1211 24.1588L41.0399 24.1951C40.9583 24.2301 40.8771 24.2655 40.7947 24.2987C40.7947 24.2987 40.7093 24.3332 40.6556 24.3546C40.5727 24.3864 40.489 24.4172 40.4053 24.4472C40.4053 24.4472 40.3009 24.484 40.196 24.5185L40.1093 24.5462C39.9905 24.5839 39.8709 24.6189 39.7504 24.6521L39.6493 24.6789C39.5572 24.7025 39.4646 24.7257 39.3716 24.7456L39.284 24.7652L39.1817 24.787C39.1073 24.8015 39.0321 24.816 38.9577 24.8288C38.9577 24.8288 38.8968 24.8397 38.852 24.8469C38.7133 24.8696 38.575 24.8901 38.4317 24.906L38.3104 24.9192C38.2588 24.9246 38.1894 24.931 38.1894 24.931C38.1586 24.9332 38.1269 24.9364 38.1269 24.9364C38.074 24.9405 38.0051 24.9455 38.0051 24.9455C37.9036 24.9519 37.8013 24.9573 37.6998 24.9609L37.6838 24.9618C37.6005 24.9641 37.518 24.9655 37.4339 24.9659L37.4183 24.9664L28.7459 24.9664L28.6174 24.9573C28.5054 24.9332 28.4753 24.9327 28.3692 24.886C28.0526 24.7447 27.8158 24.4149 27.7701 24.047C27.7651 24.0016 27.7651 23.9553 27.7621 23.9094L27.7621 14.5924C27.7621 14.5479 27.7625 14.492 27.7625 14.492C27.7659 14.2767 27.7739 14.0619 27.7887 13.8479L27.7946 13.7634C27.798 13.7271 27.8014 13.6835 27.8014 13.6835C27.8065 13.6235 27.8115 13.5636 27.8183 13.5036L27.828 13.4069L27.8352 13.3428C27.8437 13.2729 27.8555 13.1784 27.8555 13.1784C27.8614 13.1366 27.8669 13.0944 27.8728 13.0517C27.8787 13.009 27.8868 12.9549 27.8868 12.9549C27.8965 12.8936 27.9096 12.8105 27.9096 12.8105C27.9206 12.7478 27.9312 12.6847 27.9426 12.6224L27.9637 12.5098C27.968 12.4898 27.9718 12.4693 27.976 12.4485C27.9904 12.3758 28.0056 12.3022 28.0216 12.2295C28.0216 12.2295 28.0377 12.1568 28.0504 12.1032C28.0572 12.0751 28.0648 12.0424 28.0648 12.0424C28.0732 12.0088 28.0838 11.9665 28.0838 11.9665C28.0893 11.9425 28.0956 11.9184 28.0956 11.9184C28.1041 11.8848 28.1147 11.8425 28.1147 11.8425C28.1286 11.7903 28.1476 11.7199 28.1476 11.7199C28.1591 11.6776 28.1734 11.6259 28.1734 11.6259C28.1895 11.5704 28.2051 11.5155 28.2216 11.4605C28.2216 11.4605 28.2554 11.3479 28.2825 11.2625C28.3066 11.1884 28.3316 11.1144 28.3565 11.0413C28.3565 11.0413 28.3806 10.9718 28.3992 10.9191C28.4305 10.8319 28.4626 10.7447 28.4964 10.6584C28.4964 10.6584 28.5218 10.5921 28.5417 10.5425C28.5861 10.4313 28.6326 10.3213 28.6808 10.2123L28.6863 10.1992C28.7095 10.1469 28.7328 10.0956 28.7569 10.0434L28.8152 9.91799C28.9023 9.73721 28.9928 9.55825 29.0896 9.38337C29.0896 9.38337 29.1239 9.32114 29.1497 9.27527C29.1894 9.20441 29.23 9.13446 29.2714 9.06451L29.2786 9.05224C29.3289 8.96912 29.3792 8.88691 29.4312 8.80469C29.4312 8.80469 29.4824 8.7243 29.5154 8.67433C29.5872 8.56532 29.6608 8.45722 29.7365 8.35138L29.7445 8.34003C29.8122 8.24555 29.8811 8.15153 29.9517 8.05932L29.9597 8.04887C30.0062 7.98892 30.0532 7.9285 30.1005 7.86945L30.109 7.85946C30.1821 7.76907 30.2557 7.68004 30.3318 7.59283C30.3318 7.59283 30.4375 7.4711 30.5216 7.3789C30.6193 7.27215 30.7182 7.16768 30.8201 7.06639C30.8201 7.06639 30.8624 7.0237 30.8954 6.99099C31.0095 6.87925 31.1249 6.7707 31.2433 6.66532C31.2433 6.66532 31.2949 6.6199 31.3325 6.58674C31.3921 6.5345 31.4526 6.48317 31.5139 6.43276C31.5139 6.43276 31.5663 6.38915 31.6056 6.35781C31.6517 6.32011 31.6982 6.28286 31.7452 6.24698L31.8496 6.16658C31.8898 6.13615 31.9447 6.09527 31.9447 6.09527C32.0208 6.03895 32.0974 5.98399 32.1747 5.93084C32.1747 5.93084 32.266 5.86816 32.3219 5.83091C32.3713 5.79776 32.4208 5.76551 32.4711 5.73326C32.4711 5.73326 32.5218 5.70055 32.5599 5.67693C32.5971 5.65422 32.6343 5.63061 32.6723 5.60789L32.6838 5.60108C32.7391 5.56792 32.7941 5.53522 32.8503 5.50297C32.8503 5.50297 32.9146 5.46572 32.9789 5.43029C32.9789 5.43029 33.0313 5.40122 33.071 5.37942C33.0998 5.36398 33.1353 5.3449 33.1353 5.3449C33.3103 5.25315 33.4871 5.16503 33.6676 5.08463C33.6676 5.08463 33.7648 5.04103 33.8185 5.01786C33.8481 5.00515 33.8845 4.9897 33.8845 4.9897C33.972 4.95291 34.06 4.91748 34.1487 4.88387L34.161 4.87887C34.2215 4.85571 34.2819 4.83345 34.3428 4.81165C34.3428 4.81165 34.5293 4.74579 34.6544 4.70582L34.7817 4.6663C34.854 4.64495 34.9258 4.62406 34.9981 4.60453C34.9981 4.60453 35.0827 4.58091 35.1579 4.56183C35.2133 4.54775 35.2877 4.52958 35.2877 4.52958C35.3266 4.5205 35.366 4.51096 35.4053 4.50233C35.4205 4.4987 35.4205 4.49869 35.4361 4.49552C35.4915 4.48325 35.5672 4.46735 35.5672 4.46735C35.6015 4.46054 35.6408 4.45282 35.6408 4.45282C35.7 4.44101 35.7596 4.42965 35.8192 4.41921C35.8192 4.41921 35.9524 4.39604 36.0868 4.37606L36.1938 4.36107C36.3887 4.33609 36.5828 4.31565 36.7717 4.30338C36.7717 4.30338 36.8335 4.29884 36.8939 4.29566L36.9075 4.29476C36.9595 4.29248 37.011 4.28976 37.0635 4.28794L37.2017 4.28385C37.2639 4.2834 37.326 4.28204 37.3882 4.28249C37.3882 4.28249 37.4605 4.28204 37.5133 4.2834C37.5746 4.28386 37.6359 4.28522 37.6972 4.28749C37.6972 4.28749 37.8397 4.2934 37.8989 4.29703C37.9492 4.2993 38 4.30294 38.0503 4.30611C38.0503 4.30611 38.1141 4.31111 38.172 4.31611C38.172 4.31611 38.2955 4.32701 38.4139 4.34064C38.4139 4.34064 38.4934 4.34972 38.5521 4.35744L38.6857 4.37561C38.7356 4.38288 38.7859 4.3906 38.8358 4.39878C38.8358 4.39878 38.9136 4.4115 38.9707 4.42194L39.0743 4.44057C39.0743 4.44057 39.1631 4.45783 39.2514 4.47645C39.2514 4.47645 39.3106 4.48917 39.3563 4.49916C39.4776 4.52596 39.5981 4.5564 39.7182 4.58819C39.7182 4.58819 39.8776 4.63134 39.9939 4.66632C40.0598 4.68631 40.1258 4.7072 40.1921 4.72855C40.1921 4.72855 40.2742 4.7558 40.3329 4.77624C40.3701 4.78896 40.4175 4.80531 40.4175 4.80531C40.5109 4.83938 40.6039 4.8739 40.6961 4.91024C40.6961 4.91024 40.7452 4.92932 40.7942 4.9493C40.7942 4.9493 40.891 4.98882 40.9705 5.02334C40.9705 5.02334 41.1197 5.0883 41.2288 5.13917C41.2952 5.17051 41.3616 5.20276 41.4275 5.23547C41.4275 5.23547 41.5015 5.27226 41.5472 5.29588C41.6174 5.33222 41.6871 5.36901 41.7565 5.40716C41.7565 5.40716 41.8419 5.4544 41.9235 5.50119C41.9235 5.50119 42.0148 5.55388 42.0655 5.58477C42.1188 5.61656 42.192 5.66153 42.192 5.66153C42.3344 5.75101 42.4748 5.84185 42.6126 5.93815C42.6126 5.93815 42.687 5.98993 42.7467 6.03308C42.8223 6.08804 42.8972 6.14392 42.9716 6.20024C43.0422 6.25429 43.112 6.30925 43.1809 6.36603L43.1919 6.37421C43.2802 6.44643 43.3682 6.52001 43.454 6.59587C43.454 6.59587 43.5001 6.63538 43.5331 6.66536C43.6404 6.76075 43.7449 6.85841 43.848 6.95925L43.8582 6.96833C43.9871 7.09506 44.1161 7.22724 44.2349 7.35669ZM42.7864 8.79021C42.6532 8.64895 42.515 8.51223 42.3712 8.37778C42.3712 8.37778 42.1725 8.19972 42.0884 8.12931C41.8525 7.93218 41.6047 7.74959 41.3451 7.57971C41.3367 7.57425 41.3367 7.57425 41.3282 7.5688C41.2914 7.54473 41.2542 7.52111 41.217 7.4984C41.2085 7.49295 41.2085 7.49295 41.1997 7.48704C40.8428 7.26629 40.4775 7.08096 40.0966 6.92607C40.078 6.9188 40.0594 6.91154 40.0408 6.90336C39.5347 6.70214 39.0071 6.56042 38.4836 6.47957C38.4278 6.47139 38.372 6.46322 38.3166 6.4564C38.3166 6.4564 38.2617 6.44913 38.2202 6.44459C38.0313 6.42233 37.8414 6.40734 37.6495 6.40098C37.3789 6.3919 37.1129 6.39689 36.847 6.41642C36.6889 6.42823 36.532 6.44504 36.3756 6.46775C36.3756 6.46775 36.2462 6.48683 36.1617 6.50136C35.9135 6.54451 35.6691 6.59993 35.4425 6.66442C35.1571 6.74573 34.8738 6.84293 34.6058 6.95649C34.5538 6.97874 34.5018 7.001 34.4506 7.02416C34.4409 7.02825 34.4409 7.02825 34.432 7.03234C34.2895 7.09638 34.1492 7.16452 34.0088 7.23992C33.8845 7.30623 33.7623 7.37482 33.6397 7.44931C33.6291 7.45522 33.6186 7.46203 33.608 7.46794C33.4313 7.57604 33.2567 7.69277 33.0905 7.81496C32.8947 7.95804 32.7125 8.10475 32.5269 8.26873C32.3756 8.40227 32.2301 8.54126 32.0889 8.68661C32.0783 8.69796 32.0669 8.70932 32.0563 8.72067C31.79 8.99775 31.5389 9.30208 31.3207 9.60549C31.1025 9.90891 30.8911 10.2514 30.7093 10.5975C30.6227 10.7624 30.5411 10.9309 30.4658 11.1026C30.3724 11.3147 30.2861 11.5328 30.21 11.7517C30.21 11.7517 30.158 11.9057 30.1238 12.0124L30.1212 12.0224C30.0659 12.2009 30.0151 12.3817 29.9711 12.567C29.8887 12.9136 29.8261 13.2679 29.7885 13.5999C29.7513 13.926 29.7319 14.2485 29.7297 14.5851L29.7297 14.596L29.7298 22.852C32.2953 22.852 34.8608 22.8629 37.4263 22.852C37.5747 22.8515 37.7227 22.8461 37.8694 22.8365L37.8812 22.8356C38.2304 22.8102 38.5788 22.7621 38.9323 22.6848C39.2105 22.624 39.4806 22.5481 39.7546 22.4518C39.7546 22.4518 39.8861 22.405 39.9871 22.3655C40.152 22.3019 40.3148 22.2324 40.4729 22.157C40.6881 22.0539 40.8987 21.9422 41.1075 21.8168C41.5033 21.5806 41.8961 21.2868 42.1688 21.051C42.3235 20.9175 42.4744 20.7771 42.6207 20.63C42.6321 20.6186 42.6431 20.6077 42.6541 20.5959C42.6964 20.5532 42.7378 20.5096 42.7793 20.466C42.7793 20.466 42.882 20.3556 42.9382 20.2916C43.1044 20.1031 43.2634 19.9077 43.4113 19.7043C43.5175 19.5585 43.6189 19.4113 43.7191 19.2537C43.7999 19.126 43.8777 18.9961 43.9508 18.8658C44.0366 18.7136 44.117 18.5592 44.1935 18.4006C44.2899 18.2008 44.3791 17.9968 44.4577 17.7924C44.5338 17.5962 44.6028 17.3977 44.6674 17.1883C44.7304 16.9844 44.7846 16.7773 44.8319 16.5674L44.8349 16.5551C44.8632 16.4266 44.8898 16.2981 44.9122 16.1686C44.9122 16.1686 44.9359 16.0323 44.9532 15.9147C44.963 15.847 44.9727 15.7784 44.9807 15.7098C44.9807 15.7098 44.9993 15.5572 45.0095 15.4409C45.0298 15.2211 45.0416 15.0003 45.0454 14.7964L45.0458 14.7832C45.0463 14.7301 45.0471 14.6774 45.0467 14.6242C45.0467 14.6242 45.0467 14.5643 45.0467 14.5189C45.0458 14.4871 45.0454 14.4557 45.045 14.4244C45.0386 14.1605 45.0209 13.8916 44.993 13.6418C44.9904 13.6191 44.9879 13.5973 44.9854 13.5754C44.9499 13.2766 44.8983 12.9759 44.8344 12.6911C44.8344 12.6911 44.8201 12.6275 44.8091 12.5812C44.738 12.285 44.6531 11.9957 44.5537 11.7145C44.4442 11.4034 44.3186 11.1031 44.1715 10.8033C43.9922 10.4372 43.788 10.087 43.5589 9.75271C43.4037 9.52514 43.2384 9.30939 43.0638 9.10181C42.9737 8.99507 42.8807 8.8915 42.7864 8.79021Z" fill="black"/>
</svg>
