<svg width="66" height="57" viewBox="0 0 66 57" fill="none" xmlns="http://www.w3.org/2000/svg">
<path d="M22 16C18.3572 16 15.283 13.5652 14.3093 10.2109C6.99471 12.9595 2 19.9954 2 28C2 36.0046 6.99473 43.0405 14.3162 45.7657C15.2831 42.4348 18.3572 40 22 40C26.0796 40 29.446 43.0537 29.9381 47H58.5858L52.2929 40.7071C51.9024 40.3166 51.9024 39.6834 52.2929 39.2929C52.6834 38.9024 53.3166 38.9024 53.7071 39.2929L61.7071 47.2929C62.0976 47.6834 62.0976 48.3166 61.7071 48.7071L53.7071 56.7071C53.3166 57.0976 52.6834 57.0976 52.2929 56.7071C51.9024 56.3166 51.9024 55.6834 52.2929 55.2929L58.5858 49H29.9381C29.446 52.9463 26.0796 56 22 56C17.5817 56 14 52.4183 14 48C14 47.9351 14.0008 47.8703 14.0023 47.8057C5.70111 44.8758 0 36.9911 0 28C0 19.0089 5.70111 11.1242 14.0023 8.19426C14.0008 8.12969 14 8.06494 14 8C14 3.58172 17.5817 0 22 0C26.0796 0 29.446 3.05369 29.9381 7H50.0619C50.554 3.05369 53.9204 0 58 0C62.4183 0 66 3.58172 66 8C66 12.4183 62.4183 16 58 16C53.9204 16 50.554 12.9463 50.0619 9H29.9381C29.446 12.9463 26.0796 16 22 16ZM58 14C61.3137 14 64 11.3137 64 8C64 4.68629 61.3137 2 58 2C54.6863 2 52 4.68629 52 8C52 11.3137 54.6863 14 58 14ZM22 14C25.3137 14 28 11.3137 28 8C28 4.68629 25.3137 2 22 2C18.6863 2 16 4.68629 16 8C16 11.3137 18.6863 14 22 14ZM22 54C25.3137 54 28 51.3137 28 48C28 44.6863 25.3137 42 22 42C18.6863 42 16 44.6863 16 48C16 51.3137 18.6863 54 22 54Z" fill="#14161B"/>
<circle cx="22" cy="48" r="7" stroke="#DA1648" stroke-width="2"/>
</svg>
