<svg width="217" height="40" viewBox="0 0 217 40" fill="none" xmlns="http://www.w3.org/2000/svg">
<path d="M15.804 21.124V19H20.448V37H15.804V34.876C14.412 36.628 12.456 37.504 9.936 37.504C7.536 37.504 5.472 36.592 3.744 34.768C2.04 32.92 1.188 30.664 1.188 28C1.188 25.36 2.04 23.116 3.744 21.268C5.472 19.42 7.536 18.496 9.936 18.496C12.456 18.496 14.412 19.372 15.804 21.124ZM7.236 31.672C8.172 32.608 9.36 33.076 10.8 33.076C12.24 33.076 13.428 32.608 14.364 31.672C15.324 30.712 15.804 29.488 15.804 28C15.804 26.512 15.324 25.3 14.364 24.364C13.428 23.404 12.24 22.924 10.8 22.924C9.36 22.924 8.172 23.404 7.236 24.364C6.3 25.3 5.832 26.512 5.832 28C5.832 29.488 6.3 30.712 7.236 31.672ZM29.3032 19V22.096C29.7112 20.968 30.4072 20.116 31.3912 19.54C32.3752 18.94 33.5032 18.64 34.7752 18.64V23.824C33.3592 23.632 32.0872 23.92 30.9592 24.688C29.8552 25.432 29.3032 26.668 29.3032 28.396V37H24.6592V19H29.3032ZM48.2794 19V23.464H44.2114V30.952C44.2114 31.576 44.3674 32.032 44.6794 32.32C44.9914 32.608 45.4474 32.776 46.0474 32.824C46.6474 32.848 47.3914 32.836 48.2794 32.788V37C45.1354 37.36 42.8914 37.072 41.5474 36.136C40.2274 35.176 39.5674 33.448 39.5674 30.952V23.464H36.4354V19H39.5674V15.364L44.2114 13.96V19H48.2794ZM55.451 24.112C55.451 24.88 56.543 25.54 58.727 26.092C59.495 26.26 60.191 26.464 60.815 26.704C61.439 26.92 62.063 27.244 62.687 27.676C63.335 28.084 63.839 28.636 64.199 29.332C64.559 30.028 64.739 30.832 64.739 31.744C64.739 33.592 64.043 35.02 62.651 36.028C61.259 37.012 59.543 37.504 57.503 37.504C53.807 37.504 51.287 36.076 49.943 33.22L53.975 30.952C54.527 32.512 55.703 33.292 57.503 33.292C59.159 33.292 59.987 32.776 59.987 31.744C59.987 30.976 58.895 30.316 56.711 29.764C55.895 29.548 55.199 29.332 54.623 29.116C54.047 28.9 53.423 28.588 52.751 28.18C52.079 27.748 51.563 27.208 51.203 26.56C50.867 25.888 50.699 25.108 50.699 24.22C50.699 22.444 51.347 21.052 52.643 20.044C53.963 19.012 55.595 18.496 57.539 18.496C59.003 18.496 60.335 18.832 61.535 19.504C62.735 20.152 63.683 21.088 64.379 22.312L60.419 24.472C59.843 23.248 58.883 22.636 57.539 22.636C56.939 22.636 56.435 22.78 56.027 23.068C55.643 23.332 55.451 23.68 55.451 24.112ZM84.9755 29.908H71.4035C72.0035 32.164 73.6955 33.292 76.4795 33.292C78.2555 33.292 79.5995 32.692 80.5115 31.492L84.2555 33.652C82.4795 36.22 79.8635 37.504 76.4075 37.504C73.4315 37.504 71.0435 36.604 69.2435 34.804C67.4435 33.004 66.5435 30.736 66.5435 28C66.5435 25.312 67.4315 23.056 69.2075 21.232C70.9595 19.408 73.2395 18.496 76.0475 18.496C78.7115 18.496 80.8835 19.408 82.5635 21.232C84.2915 23.056 85.1555 25.312 85.1555 28C85.1555 28.504 85.0955 29.14 84.9755 29.908ZM71.3315 26.308H80.5115C80.2475 25.132 79.7075 24.232 78.8915 23.608C78.0995 22.984 77.1515 22.672 76.0475 22.672C74.7995 22.672 73.7675 22.996 72.9515 23.644C72.1355 24.268 71.5955 25.156 71.3315 26.308ZM93.0414 37H88.3974V10.72H93.0414V37ZM110.576 24.112C110.576 24.88 111.668 25.54 113.852 26.092C114.62 26.26 115.316 26.464 115.94 26.704C116.564 26.92 117.188 27.244 117.812 27.676C118.46 28.084 118.964 28.636 119.324 29.332C119.684 30.028 119.864 30.832 119.864 31.744C119.864 33.592 119.168 35.02 117.776 36.028C116.384 37.012 114.668 37.504 112.628 37.504C108.932 37.504 106.412 36.076 105.068 33.22L109.1 30.952C109.652 32.512 110.828 33.292 112.628 33.292C114.284 33.292 115.112 32.776 115.112 31.744C115.112 30.976 114.02 30.316 111.836 29.764C111.02 29.548 110.324 29.332 109.748 29.116C109.172 28.9 108.548 28.588 107.876 28.18C107.204 27.748 106.688 27.208 106.328 26.56C105.992 25.888 105.824 25.108 105.824 24.22C105.824 22.444 106.472 21.052 107.768 20.044C109.088 19.012 110.72 18.496 112.664 18.496C114.128 18.496 115.46 18.832 116.66 19.504C117.86 20.152 118.808 21.088 119.504 22.312L115.544 24.472C114.968 23.248 114.008 22.636 112.664 22.636C112.064 22.636 111.56 22.78 111.152 23.068C110.768 23.332 110.576 23.68 110.576 24.112ZM157.71 11.296V15.76C155.166 15.592 153.894 16.612 153.894 18.82V19H157.71V23.464H153.894V37H149.25V23.464H146.658V19H149.25V18.82C149.25 16.252 149.958 14.32 151.374 13.024C152.814 11.704 154.926 11.128 157.71 11.296ZM170.697 19V23.464H166.629V30.952C166.629 31.576 166.785 32.032 167.097 32.32C167.409 32.608 167.865 32.776 168.465 32.824C169.065 32.848 169.809 32.836 170.697 32.788V37C167.553 37.36 165.309 37.072 163.965 36.136C162.645 35.176 161.985 33.448 161.985 30.952V23.464H158.853V19H161.985V15.364L166.629 13.96V19H170.697Z" fill="white"/>
<path d="M135.105 20H131C127.686 20 125 22.6863 125 26V30C125 33.3137 127.686 36 131 36H135C138.314 36 141 33.3137 141 30V25.8947" stroke="#DA1648" stroke-width="3"/>
<circle cx="140" cy="21" r="2" fill="#DA1648"/>
</svg>
