<svg width="68" height="65" viewBox="0 0 68 65" fill="none" xmlns="http://www.w3.org/2000/svg">
<path d="M33.4538 15.55C36.9938 15.55 39.8738 12.67 39.8738 9.13V6.42C39.8738 2.88 36.9938 0 33.4538 0C29.9138 0 27.0338 2.88 27.0338 6.42V9.13C27.0338 12.67 29.9138 15.55 33.4538 15.55ZM29.0338 6.42C29.0338 3.98 31.0138 2 33.4538 2C35.8938 2 37.8738 3.98 37.8738 6.42V9.13C37.8738 11.57 35.8938 13.55 33.4538 13.55C31.0138 13.55 29.0338 11.57 29.0338 9.13V6.42Z" fill="#DA1648"/>
<path d="M15.1038 28.99C16.1938 25.62 14.3438 22 10.9838 20.9L8.40379 20.06C6.77379 19.53 5.03379 19.67 3.50379 20.45C1.97379 21.23 0.843791 22.55 0.313791 24.19C-0.776209 27.56 1.06379 31.18 4.43379 32.28L7.01379 33.12C7.66379 33.33 8.33379 33.44 9.00379 33.44C10.0038 33.44 10.9938 33.2 11.9138 32.74C13.4438 31.95 14.5738 30.62 15.1038 28.99ZM7.63379 31.21L5.05379 30.37C3.93379 30.01 3.01379 29.23 2.48379 28.17C1.94379 27.12 1.85379 25.92 2.21379 24.8C2.57379 23.68 3.35379 22.76 4.41379 22.23C5.04379 21.91 5.72379 21.75 6.41379 21.75C6.87379 21.75 7.33379 21.82 7.78379 21.97L10.3638 22.81C12.6838 23.56 13.9538 26.06 13.2038 28.38C12.4438 30.69 9.95379 31.96 7.63379 31.21Z" fill="#14161B"/>
<path d="M22.2238 50.59C19.3638 48.51 15.3338 49.15 13.2538 52.01L11.6638 54.2C9.58376 57.06 10.2238 61.08 13.0838 63.16C14.2238 63.99 15.5438 64.38 16.8438 64.38C18.8338 64.38 20.7938 63.46 22.0438 61.74L23.6338 59.55C25.7238 56.7 25.0838 52.67 22.2238 50.59ZM22.0238 58.38L20.4338 60.57C19.0038 62.54 16.2338 62.98 14.2638 61.55C13.3038 60.86 12.6838 59.83 12.4938 58.67C12.3038 57.51 12.5938 56.34 13.2838 55.38L14.8738 53.19C15.7338 52 17.0838 51.37 18.4538 51.37C19.3538 51.37 20.2638 51.64 21.0438 52.21C23.0138 53.64 23.4538 56.41 22.0238 58.38Z" fill="#14161B"/>
<path d="M53.9238 51.9201C51.8438 49.0601 47.8238 48.4201 44.9638 50.5001C42.1038 52.5801 41.4638 56.6001 43.5438 59.4601L45.1338 61.6501C46.3838 63.3801 48.3438 64.2901 50.3338 64.2901C51.6438 64.2901 52.9638 63.8901 54.0938 63.0701C56.9538 60.9901 57.5938 56.9701 55.5138 54.1101L53.9238 51.9201ZM54.6938 58.5801C54.5138 59.7501 53.8838 60.7701 52.9238 61.4601C51.9738 62.1501 50.8038 62.4301 49.6338 62.2501C48.4638 62.0701 47.4438 61.4401 46.7538 60.4801L45.1638 58.2901C43.7338 56.3201 44.1738 53.5501 46.1438 52.1201C46.9238 51.5501 47.8338 51.2801 48.7338 51.2801C50.1038 51.2801 51.4538 51.9101 52.3138 53.1001L53.9038 55.2901C54.5938 56.2401 54.8738 57.4101 54.6938 58.5801Z" fill="#14161B"/>
<path d="M44.3838 49.84C46.3538 48.41 47.6538 46.29 48.0338 43.88C48.2738 42.38 48.1338 40.88 47.6538 39.49C48.8638 38.64 49.8538 37.51 50.5438 36.15C51.6538 33.98 51.8438 31.5 51.0938 29.19C49.8238 25.29 46.1638 22.82 42.2638 22.88C41.1238 19.14 37.6438 16.42 33.5338 16.42C29.4338 16.42 25.9538 19.14 24.8138 22.87C23.3338 22.84 21.8638 23.18 20.5038 23.87C18.3338 24.98 16.7238 26.86 15.9638 29.18C15.2038 31.5 15.4038 33.97 16.5138 36.14C17.2038 37.49 18.1938 38.62 19.4038 39.47C18.9238 40.87 18.7838 42.37 19.0238 43.87C19.4038 46.28 20.7038 48.39 22.6738 49.83C24.2938 51 26.1638 51.57 28.0238 51.57C29.9838 51.57 31.9238 50.93 33.5238 49.72C35.1238 50.93 37.0638 51.57 39.0338 51.57C40.8838 51.58 42.7638 51.01 44.3838 49.84ZM23.8438 48.22C21.3438 46.41 20.3838 43.26 21.2038 40.45C21.4138 40.53 21.6138 40.62 21.8238 40.69L26.9738 42.36C27.0738 42.39 27.1838 42.41 27.2838 42.41C27.7038 42.41 28.0938 42.14 28.2338 41.72C28.4038 41.19 28.1138 40.63 27.5938 40.46L22.4438 38.79C22.3038 38.74 22.1638 38.69 22.0338 38.63C22.1138 38.51 22.1838 38.38 22.2738 38.26L25.4538 33.88C25.7738 33.43 25.6838 32.81 25.2338 32.48C24.7838 32.16 24.1638 32.26 23.8338 32.7L20.6538 37.08C20.5238 37.26 20.4038 37.45 20.2938 37.63C19.4738 36.99 18.7838 36.19 18.3038 35.23C17.4438 33.53 17.2838 31.6 17.8738 29.79C18.4638 27.98 19.7238 26.51 21.4138 25.64C22.3738 25.15 23.4038 24.9 24.4438 24.87C24.4238 25.09 24.4138 25.31 24.4138 25.54V30.96C24.4138 31.51 24.8638 31.96 25.4138 31.96C25.9638 31.96 26.4138 31.51 26.4138 30.96V25.54C26.4138 25.39 26.4238 25.24 26.4338 25.1C26.5738 25.14 26.7138 25.17 26.8538 25.21L32.0038 26.88C32.5338 27.05 33.0938 26.76 33.2638 26.24C33.4338 25.71 33.1438 25.15 32.6238 24.98L27.4738 23.31C27.2638 23.24 27.0538 23.19 26.8438 23.14C27.8338 20.39 30.4638 18.42 33.5438 18.42C36.6338 18.42 39.2638 20.4 40.2438 23.15C40.0338 23.2 39.8138 23.25 39.6038 23.32L34.4538 24.99C33.9238 25.16 33.6438 25.72 33.8138 26.25C33.9838 26.77 34.5438 27.06 35.0738 26.89L40.2238 25.22C40.3638 25.17 40.5038 25.14 40.6538 25.11C40.6638 25.25 40.6738 25.4 40.6738 25.54V30.96C40.6738 31.51 41.1238 31.96 41.6738 31.96C42.2238 31.96 42.6738 31.51 42.6738 30.96V25.54C42.6738 25.32 42.6538 25.1 42.6438 24.88C45.5638 24.97 48.2538 26.86 49.2138 29.79C49.8038 31.6 49.6538 33.53 48.7838 35.23C48.2938 36.19 47.6138 37 46.7838 37.63C46.6638 37.44 46.5538 37.25 46.4138 37.07L43.2338 32.69C42.9138 32.24 42.2838 32.14 41.8338 32.47C41.3838 32.79 41.2838 33.42 41.6138 33.87L44.7938 38.25C44.8838 38.37 44.9538 38.5 45.0338 38.62C44.8938 38.67 44.7638 38.73 44.6238 38.77L39.4738 40.44C38.9438 40.61 38.6638 41.17 38.8338 41.7C38.9738 42.12 39.3638 42.39 39.7838 42.39C39.8838 42.39 39.9938 42.37 40.0938 42.34L45.2438 40.67C45.4538 40.6 45.6538 40.52 45.8638 40.44C46.1538 41.44 46.2338 42.49 46.0638 43.55C45.7638 45.43 44.7538 47.08 43.2138 48.2C40.7138 50.02 37.4238 49.96 35.0038 48.31C35.1438 48.14 35.2938 47.98 35.4238 47.8L38.6038 43.42C38.9238 42.97 38.8338 42.35 38.3838 42.02C37.9338 41.7 37.3138 41.8 36.9838 42.24L33.8038 46.62C33.7138 46.74 33.6238 46.85 33.5238 46.96C33.4338 46.85 33.3338 46.74 33.2538 46.62L30.0638 42.24C29.7438 41.79 29.1138 41.69 28.6638 42.02C28.2138 42.34 28.1138 42.97 28.4438 43.42L31.6338 47.8C31.7638 47.98 31.9138 48.14 32.0538 48.31C29.6338 49.97 26.3438 50.03 23.8438 48.22Z" fill="#14161B"/>
<path d="M66.6837 24.0401C65.5937 20.6801 61.9637 18.8301 58.5937 19.9201L56.0137 20.7601C52.6437 21.8501 50.8037 25.4801 51.8937 28.8501C52.4237 30.4801 53.5537 31.8101 55.0837 32.59C56.0037 33.0601 56.9937 33.2901 57.9937 33.2901C58.6637 33.2901 59.3338 33.1801 59.9838 32.9701L62.5637 32.1301C64.1937 31.6001 65.5238 30.4701 66.3038 28.9401C67.0838 27.4101 67.2137 25.6701 66.6837 24.0401ZM64.5237 28.0301C63.9837 29.0801 63.0737 29.86 61.9537 30.23L59.3738 31.07C57.0538 31.82 54.5638 30.55 53.8038 28.23C53.0538 25.91 54.3237 23.42 56.6437 22.66L59.2237 21.82C61.5437 21.07 64.0337 22.34 64.7937 24.66C65.1537 25.78 65.0537 26.9801 64.5237 28.0301Z" fill="#14161B"/>
</svg>
